%TF.GenerationSoftware,KiCad,Pcbnew,6.0.4-6f826c9f35~116~ubuntu20.04.1*%
%TF.CreationDate,2022-12-07T13:40:06+01:00*%
%TF.ProjectId,Salwa2,53616c77-6132-42e6-9b69-6361645f7063,rev?*%
%TF.SameCoordinates,Original*%
%TF.FileFunction,Soldermask,Bot*%
%TF.FilePolarity,Negative*%
%FSLAX46Y46*%
G04 Gerber Fmt 4.6, Leading zero omitted, Abs format (unit mm)*
G04 Created by KiCad (PCBNEW 6.0.4-6f826c9f35~116~ubuntu20.04.1) date 2022-12-07 13:40:06*
%MOMM*%
%LPD*%
G01*
G04 APERTURE LIST*
G04 Aperture macros list*
%AMRoundRect*
0 Rectangle with rounded corners*
0 $1 Rounding radius*
0 $2 $3 $4 $5 $6 $7 $8 $9 X,Y pos of 4 corners*
0 Add a 4 corners polygon primitive as box body*
4,1,4,$2,$3,$4,$5,$6,$7,$8,$9,$2,$3,0*
0 Add four circle primitives for the rounded corners*
1,1,$1+$1,$2,$3*
1,1,$1+$1,$4,$5*
1,1,$1+$1,$6,$7*
1,1,$1+$1,$8,$9*
0 Add four rect primitives between the rounded corners*
20,1,$1+$1,$2,$3,$4,$5,0*
20,1,$1+$1,$4,$5,$6,$7,0*
20,1,$1+$1,$6,$7,$8,$9,0*
20,1,$1+$1,$8,$9,$2,$3,0*%
G04 Aperture macros list end*
%ADD10R,1.700000X1.700000*%
%ADD11O,1.700000X1.700000*%
%ADD12C,8.600000*%
%ADD13C,0.900000*%
%ADD14C,3.400000*%
%ADD15C,3.000000*%
%ADD16RoundRect,0.250001X-0.759999X0.499999X-0.759999X-0.499999X0.759999X-0.499999X0.759999X0.499999X0*%
%ADD17O,2.020000X1.500000*%
%ADD18C,1.524000*%
%ADD19C,1.981200*%
%ADD20R,1.600000X1.600000*%
%ADD21C,1.600000*%
%ADD22C,3.302000*%
%ADD23C,2.082800*%
%ADD24R,3.960000X1.980000*%
%ADD25O,3.960000X1.980000*%
%ADD26C,8.000000*%
%ADD27C,1.200000*%
%ADD28RoundRect,0.250000X-0.600000X-0.750000X0.600000X-0.750000X0.600000X0.750000X-0.600000X0.750000X0*%
%ADD29O,1.700000X2.000000*%
G04 APERTURE END LIST*
D10*
%TO.C,J1*%
X119250000Y-49500000D03*
D11*
X121790000Y-49500000D03*
X124330000Y-49500000D03*
X126870000Y-49500000D03*
X129410000Y-49500000D03*
%TD*%
D10*
%TO.C,J2*%
X129790000Y-43750000D03*
D11*
X127250000Y-43750000D03*
X124710000Y-43750000D03*
X122170000Y-43750000D03*
X119630000Y-43750000D03*
%TD*%
D12*
%TO.C,H1*%
X158750000Y-128250000D03*
D13*
X156469581Y-125969581D03*
X161030419Y-130530419D03*
X161975000Y-128250000D03*
X161030419Y-125969581D03*
X156469581Y-130530419D03*
X158750000Y-125025000D03*
X155525000Y-128250000D03*
X158750000Y-131475000D03*
%TD*%
D14*
%TO.C,TP12*%
X168750000Y-72250000D03*
%TD*%
%TO.C,TP8*%
X174986760Y-77875300D03*
%TD*%
%TO.C,TP2*%
X174582586Y-61034711D03*
%TD*%
D15*
%TO.C,J8*%
X181820000Y-102900000D03*
X181820000Y-110600000D03*
D16*
X177500000Y-100750000D03*
D17*
X177500000Y-103750000D03*
X177500000Y-106750000D03*
X177500000Y-109750000D03*
X177500000Y-112750000D03*
%TD*%
D12*
%TO.C,H12*%
X241967578Y-45108740D03*
D13*
X241967578Y-41883740D03*
X239687159Y-47389159D03*
X238742578Y-45108740D03*
X244247997Y-42828321D03*
X245192578Y-45108740D03*
X239687159Y-42828321D03*
X241967578Y-48333740D03*
X244247997Y-47389159D03*
%TD*%
D14*
%TO.C,TP4*%
X168500000Y-49750000D03*
%TD*%
%TO.C,TP10*%
X168641258Y-77893995D03*
%TD*%
D13*
%TO.C,H11*%
X199130419Y-47380419D03*
D12*
X196850000Y-45100000D03*
D13*
X193625000Y-45100000D03*
X194569581Y-47380419D03*
X199130419Y-42819581D03*
X200075000Y-45100000D03*
X194569581Y-42819581D03*
X196850000Y-48325000D03*
X196850000Y-41875000D03*
%TD*%
D12*
%TO.C,H7*%
X184000000Y-84750000D03*
D13*
X180775000Y-84750000D03*
X181719581Y-82469581D03*
X181719581Y-87030419D03*
X186280419Y-82469581D03*
X184000000Y-87975000D03*
X184000000Y-81525000D03*
X186280419Y-87030419D03*
X187225000Y-84750000D03*
%TD*%
D18*
%TO.C,U2*%
X158696000Y-84284000D03*
X158696000Y-81744000D03*
X158696000Y-79204000D03*
X158696000Y-76664000D03*
X158696000Y-74124000D03*
X158696000Y-71584000D03*
X158696000Y-69044000D03*
X158696000Y-66504000D03*
X158696000Y-63964000D03*
X158696000Y-61424000D03*
X158696000Y-58884000D03*
X158696000Y-56344000D03*
X158696000Y-53804000D03*
X158696000Y-51264000D03*
X158696000Y-51264000D03*
X158696000Y-48724000D03*
X133804000Y-48724000D03*
X133804000Y-51264000D03*
X133804000Y-53804000D03*
X133804000Y-56344000D03*
X133804000Y-58884000D03*
X133804000Y-61424000D03*
X133804000Y-63964000D03*
X133804000Y-66504000D03*
X133804000Y-69044000D03*
X133804000Y-71584000D03*
X133804000Y-74124000D03*
X133804000Y-76664000D03*
X133804000Y-79204000D03*
X133804000Y-81744000D03*
X133804000Y-84284000D03*
%TD*%
D14*
%TO.C,TP7*%
X174852035Y-72216862D03*
%TD*%
D10*
%TO.C,J3*%
X184250000Y-56925000D03*
D11*
X184250000Y-59465000D03*
X184250000Y-62005000D03*
X184250000Y-64545000D03*
X184250000Y-67085000D03*
%TD*%
D13*
%TO.C,H6*%
X79980419Y-143880419D03*
X74475000Y-141600000D03*
X77700000Y-144825000D03*
D12*
X77700000Y-141600000D03*
D13*
X77700000Y-138375000D03*
X75419581Y-139319581D03*
X79980419Y-139319581D03*
X75419581Y-143880419D03*
X80925000Y-141600000D03*
%TD*%
D19*
%TO.C,BT1*%
X103150011Y-60670300D03*
%TD*%
D14*
%TO.C,TP5*%
X174515224Y-55106824D03*
%TD*%
D20*
%TO.C,U11*%
X211482500Y-54282500D03*
D21*
X211482500Y-56822500D03*
X211482500Y-59362500D03*
X211482500Y-61902500D03*
X211482500Y-64442500D03*
X216562500Y-64442500D03*
X216562500Y-61902500D03*
X216562500Y-59362500D03*
X216562500Y-56822500D03*
X216562500Y-54282500D03*
%TD*%
D10*
%TO.C,J6*%
X141740000Y-145540000D03*
D11*
X141740000Y-143000000D03*
X139200000Y-145540000D03*
X139200000Y-143000000D03*
X136660000Y-145540000D03*
X136660000Y-143000000D03*
X134120000Y-145540000D03*
X134120000Y-143000000D03*
X131580000Y-145540000D03*
X131580000Y-143000000D03*
X129040000Y-145540000D03*
X129040000Y-143000000D03*
X126500000Y-145540000D03*
X126500000Y-143000000D03*
%TD*%
D14*
%TO.C,TP11*%
X174717311Y-66827874D03*
%TD*%
D22*
%TO.C,U13*%
X146520000Y-115771199D03*
X171920000Y-115771199D03*
X146520000Y-97991199D03*
X171920000Y-97991199D03*
D23*
X173190000Y-111961199D03*
X173190000Y-109421199D03*
X173190000Y-106881199D03*
X173190000Y-104341199D03*
X173190000Y-101801199D03*
X145250000Y-101801199D03*
X145250000Y-104341199D03*
X145250000Y-106881199D03*
X145250000Y-109421199D03*
X145250000Y-111961199D03*
X152870000Y-104341199D03*
X152870000Y-101801199D03*
%TD*%
D20*
%TO.C,U12*%
X220792500Y-54282500D03*
D21*
X220792500Y-56822500D03*
X220792500Y-59362500D03*
X220792500Y-61902500D03*
X220792500Y-64442500D03*
X225872500Y-64442500D03*
X225872500Y-61902500D03*
X225872500Y-59362500D03*
X225872500Y-56822500D03*
X225872500Y-54282500D03*
%TD*%
D20*
%TO.C,U9*%
X202172500Y-54282500D03*
D21*
X202172500Y-56822500D03*
X202172500Y-59362500D03*
X202172500Y-61902500D03*
X202172500Y-64442500D03*
X207252500Y-64442500D03*
X207252500Y-61902500D03*
X207252500Y-59362500D03*
X207252500Y-56822500D03*
X207252500Y-54282500D03*
%TD*%
D10*
%TO.C,J5*%
X108203972Y-73942556D03*
D11*
X108203972Y-76482556D03*
X108203972Y-79022556D03*
%TD*%
D10*
%TO.C,J4*%
X162725000Y-85000000D03*
D11*
X165265000Y-85000000D03*
X167805000Y-85000000D03*
%TD*%
D24*
%TO.C,S1*%
X167000000Y-144750000D03*
D25*
X167000000Y-139750000D03*
%TD*%
D20*
%TO.C,U10*%
X230102500Y-54282500D03*
D21*
X230102500Y-56822500D03*
X230102500Y-59362500D03*
X230102500Y-61902500D03*
X230102500Y-64442500D03*
X235182500Y-64442500D03*
X235182500Y-61902500D03*
X235182500Y-59362500D03*
X235182500Y-56822500D03*
X235182500Y-54282500D03*
%TD*%
D13*
%TO.C,H3*%
X186655419Y-44619581D03*
X187600000Y-46900000D03*
X182094581Y-49180419D03*
X184375000Y-43675000D03*
X186655419Y-49180419D03*
X181150000Y-46900000D03*
D12*
X184375000Y-46900000D03*
D13*
X182094581Y-44619581D03*
X184375000Y-50125000D03*
%TD*%
D14*
%TO.C,TP9*%
X168836172Y-66621456D03*
%TD*%
D13*
%TO.C,H2*%
X167023496Y-130418552D03*
X171266136Y-130418552D03*
X166144816Y-128297232D03*
X169144816Y-125297232D03*
D26*
X169144816Y-128297232D03*
D13*
X171266136Y-126175912D03*
X169144816Y-131297232D03*
X172144816Y-128297232D03*
X167023496Y-126175912D03*
%TD*%
D14*
%TO.C,TP1*%
X174500000Y-49500000D03*
%TD*%
D13*
%TO.C,H8*%
X184300000Y-138775000D03*
X184300000Y-145225000D03*
X181075000Y-142000000D03*
X182019581Y-139719581D03*
X187525000Y-142000000D03*
X186580419Y-144280419D03*
X186580419Y-139719581D03*
X182019581Y-144280419D03*
D12*
X184300000Y-142000000D03*
%TD*%
D13*
%TO.C,H10*%
X239494211Y-69712352D03*
D12*
X241774630Y-71992771D03*
D13*
X239494211Y-74273190D03*
X241774630Y-68767771D03*
X244055049Y-69712352D03*
X244999630Y-71992771D03*
X241774630Y-75217771D03*
X238549630Y-71992771D03*
X244055049Y-74273190D03*
%TD*%
%TO.C,H5*%
X108000000Y-139525000D03*
X104775000Y-142750000D03*
D12*
X108000000Y-142750000D03*
D13*
X111225000Y-142750000D03*
X105719581Y-145030419D03*
X108000000Y-145975000D03*
X110280419Y-145030419D03*
X105719581Y-140469581D03*
X110280419Y-140469581D03*
%TD*%
D18*
%TO.C,SW2*%
X102750000Y-44500000D03*
X102750000Y-49500000D03*
X96750000Y-44500000D03*
X96750000Y-49500000D03*
%TD*%
D27*
%TO.C,SW1*%
X86650000Y-46725000D03*
D28*
X88250000Y-44725000D03*
D29*
X90750000Y-44725000D03*
%TD*%
D13*
%TO.C,H4*%
X74969581Y-49030419D03*
D12*
X77250000Y-46750000D03*
D13*
X80475000Y-46750000D03*
X77250000Y-49975000D03*
X74969581Y-44469581D03*
X74025000Y-46750000D03*
X79530419Y-49030419D03*
X77250000Y-43525000D03*
X79530419Y-44469581D03*
%TD*%
D12*
%TO.C,H9*%
X196850000Y-72100000D03*
D13*
X196850000Y-75325000D03*
X194569581Y-74380419D03*
X199130419Y-69819581D03*
X200075000Y-72100000D03*
X196850000Y-68875000D03*
X194569581Y-69819581D03*
X199130419Y-74380419D03*
X193625000Y-72100000D03*
%TD*%
D14*
%TO.C,TP6*%
X168673743Y-55576317D03*
%TD*%
D10*
%TO.C,J7*%
X210100000Y-44850000D03*
D11*
X210100000Y-47390000D03*
X212640000Y-44850000D03*
X212640000Y-47390000D03*
X215180000Y-44850000D03*
X215180000Y-47390000D03*
X217720000Y-44850000D03*
X217720000Y-47390000D03*
X220260000Y-44850000D03*
X220260000Y-47390000D03*
X222800000Y-44850000D03*
X222800000Y-47390000D03*
X225340000Y-44850000D03*
X225340000Y-47390000D03*
%TD*%
D14*
%TO.C,TP3*%
X168836172Y-61131372D03*
%TD*%
M02*
