M48
; DRILL file {KiCad 6.0.4-6f826c9f35~116~ubuntu20.04.1} date Mi 07 Dez 2022 13:40:01 CET
; FORMAT={-:-/ absolute / inch / decimal}
; #@! TF.CreationDate,2022-12-07T13:40:01+01:00
; #@! TF.GenerationSoftware,Kicad,Pcbnew,6.0.4-6f826c9f35~116~ubuntu20.04.1
; #@! TF.FileFunction,NonPlated,1,4,NPTH
FMAT,2
INCH
; #@! TA.AperFunction,NonPlated,NPTH,ComponentDrill
T1C0.0197
; #@! TA.AperFunction,NonPlated,NPTH,ComponentDrill
T2C0.0472
; #@! TA.AperFunction,NonPlated,NPTH,ComponentDrill
T3C0.0780
; #@! TA.AperFunction,NonPlated,NPTH,ComponentDrill
T4C0.1181
; #@! TA.AperFunction,NonPlated,NPTH,ComponentDrill
T5C0.1300
%
G90
G05
T1
X7.5197Y-1.5571
X7.5197Y-1.5866
X7.5197Y-1.6161
X7.5197Y-1.6457
X7.5197Y-1.6752
X7.5197Y-1.7047
X7.5197Y-1.7343
X7.5197Y-1.7638
X7.5197Y-1.7933
X7.5197Y-1.7933
X7.5197Y-1.8228
X7.5197Y-1.8228
X7.5197Y-1.8524
X7.5197Y-1.8524
X7.5197Y-1.8819
X7.5197Y-1.9114
X7.5197Y-1.9409
X7.5197Y-1.9705
X7.5197Y-2.0
X7.5197Y-2.0295
X7.5197Y-2.0591
X7.5197Y-2.0886
X7.5197Y-2.1161
X7.5197Y-2.1457
X7.5197Y-2.1752
X7.5197Y-2.2047
X7.5197Y-2.2343
X7.5197Y-2.2638
X7.5197Y-2.2933
X7.5197Y-2.3228
X7.5197Y-2.3524
X7.5197Y-2.3819
X7.5197Y-2.4114
X7.5197Y-2.439
X7.5197Y-2.4685
X7.5197Y-2.498
X7.5197Y-2.5276
X7.5197Y-2.5571
X7.5197Y-2.5866
X7.5197Y-2.6161
X7.5197Y-2.6457
X7.5197Y-2.6752
X7.5197Y-2.7047
X7.5197Y-2.7343
X7.5197Y-2.7638
X7.5197Y-2.7933
X7.5197Y-2.8228
X7.5197Y-2.8524
X7.5197Y-2.8819
X7.5197Y-2.9114
X7.5197Y-2.9409
X7.5197Y-2.9705
X7.5197Y-3.0
X7.5197Y-3.0295
X7.5197Y-3.0591
T2
X3.4114Y-1.8396
T3
X4.061Y-2.3886
T4
X7.1583Y-4.0512
X7.1583Y-4.3543
T5
X5.7685Y-3.8579
X5.7685Y-4.5579
X6.7685Y-3.8579
X6.7685Y-4.5579
T0
M30
