%TF.GenerationSoftware,KiCad,Pcbnew,6.0.4-6f826c9f35~116~ubuntu20.04.1*%
%TF.CreationDate,2022-12-07T13:40:06+01:00*%
%TF.ProjectId,Salwa2,53616c77-6132-42e6-9b69-6361645f7063,rev?*%
%TF.SameCoordinates,Original*%
%TF.FileFunction,Paste,Top*%
%TF.FilePolarity,Positive*%
%FSLAX46Y46*%
G04 Gerber Fmt 4.6, Leading zero omitted, Abs format (unit mm)*
G04 Created by KiCad (PCBNEW 6.0.4-6f826c9f35~116~ubuntu20.04.1) date 2022-12-07 13:40:06*
%MOMM*%
%LPD*%
G01*
G04 APERTURE LIST*
G04 Aperture macros list*
%AMRoundRect*
0 Rectangle with rounded corners*
0 $1 Rounding radius*
0 $2 $3 $4 $5 $6 $7 $8 $9 X,Y pos of 4 corners*
0 Add a 4 corners polygon primitive as box body*
4,1,4,$2,$3,$4,$5,$6,$7,$8,$9,$2,$3,0*
0 Add four circle primitives for the rounded corners*
1,1,$1+$1,$2,$3*
1,1,$1+$1,$4,$5*
1,1,$1+$1,$6,$7*
1,1,$1+$1,$8,$9*
0 Add four rect primitives between the rounded corners*
20,1,$1+$1,$2,$3,$4,$5,0*
20,1,$1+$1,$4,$5,$6,$7,0*
20,1,$1+$1,$6,$7,$8,$9,0*
20,1,$1+$1,$8,$9,$2,$3,0*%
G04 Aperture macros list end*
%ADD10RoundRect,0.250000X-0.412500X-1.100000X0.412500X-1.100000X0.412500X1.100000X-0.412500X1.100000X0*%
%ADD11RoundRect,0.250000X0.625000X-0.400000X0.625000X0.400000X-0.625000X0.400000X-0.625000X-0.400000X0*%
%ADD12RoundRect,0.250000X-0.400000X-0.625000X0.400000X-0.625000X0.400000X0.625000X-0.400000X0.625000X0*%
%ADD13RoundRect,0.237500X0.237500X-0.287500X0.237500X0.287500X-0.237500X0.287500X-0.237500X-0.287500X0*%
%ADD14RoundRect,0.250000X-0.625000X0.400000X-0.625000X-0.400000X0.625000X-0.400000X0.625000X0.400000X0*%
%ADD15R,0.600000X1.500000*%
%ADD16R,1.600000X1.600000*%
%ADD17RoundRect,0.250000X0.159099X-0.724784X0.724784X-0.159099X-0.159099X0.724784X-0.724784X0.159099X0*%
%ADD18R,0.640000X0.640000*%
%ADD19R,0.850000X0.280000*%
%ADD20R,0.280000X0.700000*%
%ADD21R,5.080000X6.350000*%
%ADD22RoundRect,0.150000X-0.150000X0.825000X-0.150000X-0.825000X0.150000X-0.825000X0.150000X0.825000X0*%
%ADD23RoundRect,0.250000X-0.412500X-0.650000X0.412500X-0.650000X0.412500X0.650000X-0.412500X0.650000X0*%
%ADD24RoundRect,0.237500X-0.237500X0.300000X-0.237500X-0.300000X0.237500X-0.300000X0.237500X0.300000X0*%
%ADD25R,5.250000X4.550000*%
%ADD26R,1.100000X4.600000*%
%ADD27RoundRect,0.250000X-1.100000X0.412500X-1.100000X-0.412500X1.100000X-0.412500X1.100000X0.412500X0*%
%ADD28RoundRect,0.150000X-0.150000X0.875000X-0.150000X-0.875000X0.150000X-0.875000X0.150000X0.875000X0*%
%ADD29RoundRect,0.250000X0.650000X-0.412500X0.650000X0.412500X-0.650000X0.412500X-0.650000X-0.412500X0*%
%ADD30RoundRect,0.250000X-0.650000X0.412500X-0.650000X-0.412500X0.650000X-0.412500X0.650000X0.412500X0*%
%ADD31RoundRect,0.250000X0.400000X0.625000X-0.400000X0.625000X-0.400000X-0.625000X0.400000X-0.625000X0*%
G04 APERTURE END LIST*
D10*
%TO.C,C6*%
X141465515Y-133141658D03*
X144590515Y-133141658D03*
%TD*%
%TO.C,C5*%
X178428600Y-94999999D03*
X181553600Y-94999999D03*
%TD*%
D11*
%TO.C,R20*%
X131750000Y-139550000D03*
X131750000Y-136450000D03*
%TD*%
D12*
%TO.C,R12*%
X121200000Y-73500000D03*
X124300000Y-73500000D03*
%TD*%
D11*
%TO.C,R22*%
X126750000Y-139550000D03*
X126750000Y-136450000D03*
%TD*%
D13*
%TO.C,D1*%
X113500000Y-61625000D03*
X113500000Y-59875000D03*
%TD*%
D14*
%TO.C,R16*%
X157000000Y-137200000D03*
X157000000Y-140300000D03*
%TD*%
D15*
%TO.C,U4*%
X121973016Y-78591659D03*
X120703016Y-78591659D03*
X119433016Y-78591659D03*
X118163016Y-78591659D03*
X116893016Y-78591659D03*
X115623016Y-78591659D03*
X114353016Y-78591659D03*
X113083016Y-78591659D03*
X113083016Y-85691659D03*
X114353016Y-85691659D03*
X115623016Y-85691659D03*
X116893016Y-85691659D03*
X118163016Y-85691659D03*
X119433016Y-85691659D03*
X120703016Y-85691659D03*
X121973016Y-85691659D03*
%TD*%
D10*
%TO.C,C8*%
X123937500Y-63500000D03*
X127062500Y-63500000D03*
%TD*%
D11*
%TO.C,R25*%
X124250000Y-139550000D03*
X124250000Y-136450000D03*
%TD*%
%TO.C,R19*%
X134250000Y-139550000D03*
X134250000Y-136450000D03*
%TD*%
D16*
%TO.C,L1*%
X117947278Y-59872924D03*
X122486227Y-59956859D03*
%TD*%
D17*
%TO.C,R3*%
X135750000Y-96000000D03*
X137942032Y-93807968D03*
%TD*%
D18*
%TO.C,U1*%
X120730000Y-65860000D03*
X120730000Y-65000000D03*
X119770000Y-65860000D03*
X119770000Y-64140000D03*
X120730000Y-64140000D03*
X119770000Y-65000000D03*
D19*
X118775000Y-64000000D03*
X118775000Y-64500000D03*
X118775000Y-65000000D03*
X118775000Y-65500000D03*
X118775000Y-66000000D03*
X121725000Y-66000000D03*
X121725000Y-65500000D03*
X121725000Y-65000000D03*
X121725000Y-64500000D03*
X121725000Y-64000000D03*
D20*
X120500000Y-63450000D03*
X120500000Y-66550000D03*
X120000000Y-63450000D03*
X120000000Y-66550000D03*
%TD*%
D14*
%TO.C,R14*%
X165500000Y-87950000D03*
X165500000Y-91050000D03*
%TD*%
D17*
%TO.C,R4*%
X132037689Y-99712311D03*
X134229721Y-97520279D03*
%TD*%
D21*
%TO.C,BT1*%
X96449998Y-57495300D03*
X96449998Y-120004700D03*
X82050002Y-57495300D03*
X82050002Y-120004700D03*
%TD*%
D11*
%TO.C,R8*%
X106500000Y-104300000D03*
X106500000Y-101200000D03*
%TD*%
D22*
%TO.C,U6*%
X139320000Y-128075000D03*
X138050000Y-128075000D03*
X136780000Y-128075000D03*
X135510000Y-128075000D03*
X134240000Y-128075000D03*
X132970000Y-128075000D03*
X131700000Y-128075000D03*
X130430000Y-128075000D03*
X130430000Y-133025000D03*
X131700000Y-133025000D03*
X132970000Y-133025000D03*
X134240000Y-133025000D03*
X135510000Y-133025000D03*
X136780000Y-133025000D03*
X138050000Y-133025000D03*
X139320000Y-133025000D03*
%TD*%
D11*
%TO.C,R7*%
X106500000Y-99300000D03*
X106500000Y-96200000D03*
%TD*%
D23*
%TO.C,C3*%
X115687500Y-74250000D03*
X118812500Y-74250000D03*
%TD*%
D14*
%TO.C,R5*%
X106500000Y-90700000D03*
X106500000Y-93800000D03*
%TD*%
D17*
%TO.C,R2*%
X123691673Y-94558327D03*
X125883705Y-92366295D03*
%TD*%
D24*
%TO.C,C2*%
X116250000Y-65887500D03*
X116250000Y-67612500D03*
%TD*%
D25*
%TO.C,Q1*%
X114525000Y-44700000D03*
X114525000Y-49550000D03*
X108975000Y-44700000D03*
X108975000Y-49550000D03*
D26*
X109210000Y-56275000D03*
X111750000Y-56275000D03*
X114290000Y-56275000D03*
%TD*%
D10*
%TO.C,C10*%
X124215515Y-86141659D03*
X127340515Y-86141659D03*
%TD*%
D11*
%TO.C,R15*%
X153250000Y-140300000D03*
X153250000Y-137200000D03*
%TD*%
%TO.C,R13*%
X162500000Y-91050000D03*
X162500000Y-87950000D03*
%TD*%
D27*
%TO.C,C9*%
X142500000Y-120937500D03*
X142500000Y-124062500D03*
%TD*%
D28*
%TO.C,U3*%
X120743016Y-107991659D03*
X119473016Y-107991659D03*
X118203016Y-107991659D03*
X116933016Y-107991659D03*
X115663016Y-107991659D03*
X114393016Y-107991659D03*
X113123016Y-107991659D03*
X111853016Y-107991659D03*
X110583016Y-107991659D03*
X109313016Y-107991659D03*
X109313016Y-117291659D03*
X110583016Y-117291659D03*
X111853016Y-117291659D03*
X113123016Y-117291659D03*
X114393016Y-117291659D03*
X115663016Y-117291659D03*
X116933016Y-117291659D03*
X118203016Y-117291659D03*
X119473016Y-117291659D03*
X120743016Y-117291659D03*
%TD*%
D12*
%TO.C,R17*%
X153950000Y-145000000D03*
X157050000Y-145000000D03*
%TD*%
D17*
%TO.C,R1*%
X127403984Y-90846016D03*
X129596016Y-88653984D03*
%TD*%
D22*
%TO.C,U5*%
X120838015Y-99416659D03*
X119568015Y-99416659D03*
X118298015Y-99416659D03*
X117028015Y-99416659D03*
X115758015Y-99416659D03*
X114488015Y-99416659D03*
X113218015Y-99416659D03*
X113218015Y-104366659D03*
X114488015Y-104366659D03*
X115758015Y-104366659D03*
X117028015Y-104366659D03*
X118298015Y-104366659D03*
X119568015Y-104366659D03*
X120838015Y-104366659D03*
%TD*%
D11*
%TO.C,R21*%
X129250000Y-139550000D03*
X129250000Y-136450000D03*
%TD*%
D29*
%TO.C,C4*%
X127250000Y-57312500D03*
X127250000Y-54187500D03*
%TD*%
D11*
%TO.C,R18*%
X136750000Y-139550000D03*
X136750000Y-136450000D03*
%TD*%
D30*
%TO.C,C1*%
X113750000Y-64187500D03*
X113750000Y-67312500D03*
%TD*%
D28*
%TO.C,U7*%
X141493015Y-107991659D03*
X140223015Y-107991659D03*
X138953015Y-107991659D03*
X137683015Y-107991659D03*
X136413015Y-107991659D03*
X135143015Y-107991659D03*
X133873015Y-107991659D03*
X132603015Y-107991659D03*
X131333015Y-107991659D03*
X130063015Y-107991659D03*
X130063015Y-117291659D03*
X131333015Y-117291659D03*
X132603015Y-117291659D03*
X133873015Y-117291659D03*
X135143015Y-117291659D03*
X136413015Y-117291659D03*
X137683015Y-117291659D03*
X138953015Y-117291659D03*
X140223015Y-117291659D03*
X141493015Y-117291659D03*
%TD*%
D11*
%TO.C,R23*%
X141750000Y-139550000D03*
X141750000Y-136450000D03*
%TD*%
D22*
%TO.C,U8*%
X121473015Y-90166658D03*
X120203015Y-90166658D03*
X118933015Y-90166658D03*
X117663015Y-90166658D03*
X116393015Y-90166658D03*
X115123015Y-90166658D03*
X113853015Y-90166658D03*
X112583015Y-90166658D03*
X112583015Y-95116658D03*
X113853015Y-95116658D03*
X115123015Y-95116658D03*
X116393015Y-95116658D03*
X117663015Y-95116658D03*
X118933015Y-95116658D03*
X120203015Y-95116658D03*
X121473015Y-95116658D03*
%TD*%
D10*
%TO.C,C7*%
X124465515Y-119141659D03*
X127590515Y-119141659D03*
%TD*%
D11*
%TO.C,R24*%
X139250000Y-139550000D03*
X139250000Y-136450000D03*
%TD*%
D14*
%TO.C,R10*%
X118750000Y-68649999D03*
X118750000Y-71749999D03*
%TD*%
D31*
%TO.C,R11*%
X124300000Y-69000000D03*
X121200000Y-69000000D03*
%TD*%
D14*
%TO.C,R6*%
X106500000Y-85450000D03*
X106500000Y-88550000D03*
%TD*%
%TO.C,R9*%
X110500000Y-59700000D03*
X110500000Y-62800000D03*
%TD*%
M02*
