%TF.GenerationSoftware,KiCad,Pcbnew,6.0.4-6f826c9f35~116~ubuntu20.04.1*%
%TF.CreationDate,2022-12-07T13:40:06+01:00*%
%TF.ProjectId,Salwa2,53616c77-6132-42e6-9b69-6361645f7063,rev?*%
%TF.SameCoordinates,Original*%
%TF.FileFunction,Copper,L1,Top*%
%TF.FilePolarity,Positive*%
%FSLAX46Y46*%
G04 Gerber Fmt 4.6, Leading zero omitted, Abs format (unit mm)*
G04 Created by KiCad (PCBNEW 6.0.4-6f826c9f35~116~ubuntu20.04.1) date 2022-12-07 13:40:06*
%MOMM*%
%LPD*%
G01*
G04 APERTURE LIST*
G04 Aperture macros list*
%AMRoundRect*
0 Rectangle with rounded corners*
0 $1 Rounding radius*
0 $2 $3 $4 $5 $6 $7 $8 $9 X,Y pos of 4 corners*
0 Add a 4 corners polygon primitive as box body*
4,1,4,$2,$3,$4,$5,$6,$7,$8,$9,$2,$3,0*
0 Add four circle primitives for the rounded corners*
1,1,$1+$1,$2,$3*
1,1,$1+$1,$4,$5*
1,1,$1+$1,$6,$7*
1,1,$1+$1,$8,$9*
0 Add four rect primitives between the rounded corners*
20,1,$1+$1,$2,$3,$4,$5,0*
20,1,$1+$1,$4,$5,$6,$7,0*
20,1,$1+$1,$6,$7,$8,$9,0*
20,1,$1+$1,$8,$9,$2,$3,0*%
G04 Aperture macros list end*
%TA.AperFunction,ComponentPad*%
%ADD10R,1.700000X1.700000*%
%TD*%
%TA.AperFunction,ComponentPad*%
%ADD11O,1.700000X1.700000*%
%TD*%
%TA.AperFunction,ComponentPad*%
%ADD12C,8.600000*%
%TD*%
%TA.AperFunction,ComponentPad*%
%ADD13C,0.900000*%
%TD*%
%TA.AperFunction,SMDPad,CuDef*%
%ADD14RoundRect,0.250000X-0.412500X-1.100000X0.412500X-1.100000X0.412500X1.100000X-0.412500X1.100000X0*%
%TD*%
%TA.AperFunction,ComponentPad*%
%ADD15C,3.400000*%
%TD*%
%TA.AperFunction,SMDPad,CuDef*%
%ADD16RoundRect,0.250000X0.625000X-0.400000X0.625000X0.400000X-0.625000X0.400000X-0.625000X-0.400000X0*%
%TD*%
%TA.AperFunction,SMDPad,CuDef*%
%ADD17RoundRect,0.250000X-0.400000X-0.625000X0.400000X-0.625000X0.400000X0.625000X-0.400000X0.625000X0*%
%TD*%
%TA.AperFunction,SMDPad,CuDef*%
%ADD18RoundRect,0.237500X0.237500X-0.287500X0.237500X0.287500X-0.237500X0.287500X-0.237500X-0.287500X0*%
%TD*%
%TA.AperFunction,SMDPad,CuDef*%
%ADD19RoundRect,0.250000X-0.625000X0.400000X-0.625000X-0.400000X0.625000X-0.400000X0.625000X0.400000X0*%
%TD*%
%TA.AperFunction,ComponentPad*%
%ADD20RoundRect,0.250001X-0.759999X0.499999X-0.759999X-0.499999X0.759999X-0.499999X0.759999X0.499999X0*%
%TD*%
%TA.AperFunction,ComponentPad*%
%ADD21O,2.020000X1.500000*%
%TD*%
%TA.AperFunction,SMDPad,CuDef*%
%ADD22R,0.600000X1.500000*%
%TD*%
%TA.AperFunction,ComponentPad*%
%ADD23C,1.524000*%
%TD*%
%TA.AperFunction,SMDPad,CuDef*%
%ADD24R,1.600000X1.600000*%
%TD*%
%TA.AperFunction,SMDPad,CuDef*%
%ADD25RoundRect,0.250000X0.159099X-0.724784X0.724784X-0.159099X-0.159099X0.724784X-0.724784X0.159099X0*%
%TD*%
%TA.AperFunction,SMDPad,CuDef*%
%ADD26R,0.850000X0.280000*%
%TD*%
%TA.AperFunction,ComponentPad*%
%ADD27C,0.600000*%
%TD*%
%TA.AperFunction,SMDPad,CuDef*%
%ADD28R,0.280000X0.700000*%
%TD*%
%TA.AperFunction,SMDPad,CuDef*%
%ADD29R,1.650000X2.400000*%
%TD*%
%TA.AperFunction,SMDPad,CuDef*%
%ADD30R,5.080000X6.350000*%
%TD*%
%TA.AperFunction,SMDPad,CuDef*%
%ADD31RoundRect,0.150000X-0.150000X0.825000X-0.150000X-0.825000X0.150000X-0.825000X0.150000X0.825000X0*%
%TD*%
%TA.AperFunction,ComponentPad*%
%ADD32R,1.600000X1.600000*%
%TD*%
%TA.AperFunction,ComponentPad*%
%ADD33C,1.600000*%
%TD*%
%TA.AperFunction,SMDPad,CuDef*%
%ADD34RoundRect,0.250000X-0.412500X-0.650000X0.412500X-0.650000X0.412500X0.650000X-0.412500X0.650000X0*%
%TD*%
%TA.AperFunction,ComponentPad*%
%ADD35C,1.879600*%
%TD*%
%TA.AperFunction,SMDPad,CuDef*%
%ADD36RoundRect,0.237500X-0.237500X0.300000X-0.237500X-0.300000X0.237500X-0.300000X0.237500X0.300000X0*%
%TD*%
%TA.AperFunction,SMDPad,CuDef*%
%ADD37R,1.100000X4.600000*%
%TD*%
%TA.AperFunction,SMDPad,CuDef*%
%ADD38R,10.800000X9.400000*%
%TD*%
%TA.AperFunction,ComponentPad*%
%ADD39R,3.960000X1.980000*%
%TD*%
%TA.AperFunction,ComponentPad*%
%ADD40O,3.960000X1.980000*%
%TD*%
%TA.AperFunction,SMDPad,CuDef*%
%ADD41RoundRect,0.250000X-1.100000X0.412500X-1.100000X-0.412500X1.100000X-0.412500X1.100000X0.412500X0*%
%TD*%
%TA.AperFunction,SMDPad,CuDef*%
%ADD42RoundRect,0.150000X-0.150000X0.875000X-0.150000X-0.875000X0.150000X-0.875000X0.150000X0.875000X0*%
%TD*%
%TA.AperFunction,ComponentPad*%
%ADD43C,8.000000*%
%TD*%
%TA.AperFunction,SMDPad,CuDef*%
%ADD44RoundRect,0.250000X0.650000X-0.412500X0.650000X0.412500X-0.650000X0.412500X-0.650000X-0.412500X0*%
%TD*%
%TA.AperFunction,ComponentPad*%
%ADD45RoundRect,0.250000X-0.600000X-0.750000X0.600000X-0.750000X0.600000X0.750000X-0.600000X0.750000X0*%
%TD*%
%TA.AperFunction,ComponentPad*%
%ADD46O,1.700000X2.000000*%
%TD*%
%TA.AperFunction,SMDPad,CuDef*%
%ADD47RoundRect,0.250000X-0.650000X0.412500X-0.650000X-0.412500X0.650000X-0.412500X0.650000X0.412500X0*%
%TD*%
%TA.AperFunction,SMDPad,CuDef*%
%ADD48RoundRect,0.250000X0.400000X0.625000X-0.400000X0.625000X-0.400000X-0.625000X0.400000X-0.625000X0*%
%TD*%
%TA.AperFunction,ViaPad*%
%ADD49C,0.800000*%
%TD*%
%TA.AperFunction,Conductor*%
%ADD50C,1.500000*%
%TD*%
%TA.AperFunction,Conductor*%
%ADD51C,0.250000*%
%TD*%
%TA.AperFunction,Conductor*%
%ADD52C,0.750000*%
%TD*%
%TA.AperFunction,Conductor*%
%ADD53C,0.500000*%
%TD*%
%TA.AperFunction,Conductor*%
%ADD54C,1.000000*%
%TD*%
%TA.AperFunction,Conductor*%
%ADD55C,0.400000*%
%TD*%
G04 APERTURE END LIST*
D10*
%TO.P,J1,1,Pin_1*%
%TO.N,GNDA*%
X119250000Y-49500000D03*
D11*
%TO.P,J1,2,Pin_2*%
X121790000Y-49500000D03*
%TO.P,J1,3,Pin_3*%
X124330000Y-49500000D03*
%TO.P,J1,4,Pin_4*%
X126870000Y-49500000D03*
%TO.P,J1,5,Pin_5*%
X129410000Y-49500000D03*
%TD*%
D10*
%TO.P,J2,1,Pin_1*%
%TO.N,+3.3VA*%
X129790000Y-43750000D03*
D11*
%TO.P,J2,2,Pin_2*%
X127250000Y-43750000D03*
%TO.P,J2,3,Pin_3*%
X124710000Y-43750000D03*
%TO.P,J2,4,Pin_4*%
X122170000Y-43750000D03*
%TO.P,J2,5,Pin_5*%
X119630000Y-43750000D03*
%TD*%
D12*
%TO.P,H1,1*%
%TO.N,N/C*%
X158750000Y-128250000D03*
D13*
X156469581Y-125969581D03*
X161030419Y-130530419D03*
X161975000Y-128250000D03*
X161030419Y-125969581D03*
X156469581Y-130530419D03*
X158750000Y-125025000D03*
X155525000Y-128250000D03*
X158750000Y-131475000D03*
%TD*%
D14*
%TO.P,C6,1*%
%TO.N,+5VA*%
X141465515Y-133141658D03*
%TO.P,C6,2*%
%TO.N,GNDA*%
X144590515Y-133141658D03*
%TD*%
D15*
%TO.P,TP12,1,1*%
%TO.N,/esp32-SMD/IO23*%
X168750000Y-72250000D03*
%TD*%
D14*
%TO.P,C5,1*%
%TO.N,+5VA*%
X178428600Y-94999999D03*
%TO.P,C5,2*%
%TO.N,GNDA*%
X181553600Y-94999999D03*
%TD*%
D15*
%TO.P,TP8,1,1*%
%TO.N,/7-segment-display-SMD/BCD_in2*%
X174986760Y-77875300D03*
%TD*%
D16*
%TO.P,R20,1*%
%TO.N,/7-segment-display-SMD/_c*%
X131750000Y-139550000D03*
%TO.P,R20,2*%
%TO.N,/7-segment-display-SMD/c*%
X131750000Y-136450000D03*
%TD*%
D17*
%TO.P,R12,1*%
%TO.N,Net-(C3-Pad2)*%
X121200000Y-73500000D03*
%TO.P,R12,2*%
%TO.N,GNDA*%
X124300000Y-73500000D03*
%TD*%
D16*
%TO.P,R22,1*%
%TO.N,/7-segment-display-SMD/_e*%
X126750000Y-139550000D03*
%TO.P,R22,2*%
%TO.N,/7-segment-display-SMD/e*%
X126750000Y-136450000D03*
%TD*%
D18*
%TO.P,D1,1,K*%
%TO.N,/power-SMD/Vin-SMD+*%
X113500000Y-61625000D03*
%TO.P,D1,2,A*%
%TO.N,Net-(D1-Pad2)*%
X113500000Y-59875000D03*
%TD*%
D19*
%TO.P,R16,1*%
%TO.N,Net-(R15-Pad2)*%
X157000000Y-137200000D03*
%TO.P,R16,2*%
%TO.N,GNDA*%
X157000000Y-140300000D03*
%TD*%
D15*
%TO.P,TP2,1,1*%
%TO.N,/esp32-SMD/IO5*%
X174582586Y-61034711D03*
%TD*%
D20*
%TO.P,J8,1,Pin_1*%
%TO.N,Net-(J8-Pad1)*%
X177500000Y-100750000D03*
D21*
%TO.P,J8,2,Pin_2*%
%TO.N,Net-(J8-Pad2)*%
X177500000Y-103750000D03*
%TO.P,J8,3,Pin_3*%
%TO.N,Net-(J8-Pad3)*%
X177500000Y-106750000D03*
%TO.P,J8,4,Pin_4*%
%TO.N,Net-(J8-Pad4)*%
X177500000Y-109750000D03*
%TO.P,J8,5,Pin_5*%
%TO.N,Net-(J8-Pad5)*%
X177500000Y-112750000D03*
%TD*%
D22*
%TO.P,U4,1,5*%
%TO.N,unconnected-(U4-Pad1)*%
X121973016Y-78591659D03*
%TO.P,U4,2,1*%
%TO.N,Net-(U4-Pad2)*%
X120703016Y-78591659D03*
%TO.P,U4,3,0*%
%TO.N,Net-(U4-Pad3)*%
X119433016Y-78591659D03*
%TO.P,U4,4,2*%
%TO.N,Net-(U4-Pad4)*%
X118163016Y-78591659D03*
%TO.P,U4,5,6*%
%TO.N,unconnected-(U4-Pad5)*%
X116893016Y-78591659D03*
%TO.P,U4,6,7*%
%TO.N,unconnected-(U4-Pad6)*%
X115623016Y-78591659D03*
%TO.P,U4,7,3*%
%TO.N,Net-(U4-Pad7)*%
X114353016Y-78591659D03*
%TO.P,U4,8,GND*%
%TO.N,GNDA*%
X113083016Y-78591659D03*
%TO.P,U4,9,8*%
%TO.N,unconnected-(U4-Pad9)*%
X113083016Y-85691659D03*
%TO.P,U4,10,4*%
%TO.N,Net-(U4-Pad10)*%
X114353016Y-85691659D03*
%TO.P,U4,11,9*%
%TO.N,unconnected-(U4-Pad11)*%
X115623016Y-85691659D03*
%TO.P,U4,12,TERMINAL_COUNT*%
%TO.N,Net-(J5-Pad2)*%
X116893016Y-85691659D03*
%TO.P,U4,13,CLOCK_ENABLE*%
%TO.N,GNDA*%
X118163016Y-85691659D03*
%TO.P,U4,14,CLOCK*%
%TO.N,/7-segment-display-SMD/clk-7SegmentDisplay*%
X119433016Y-85691659D03*
%TO.P,U4,15,MASTER_RESET*%
%TO.N,Net-(U4-Pad10)*%
X120703016Y-85691659D03*
%TO.P,U4,16,Vcc*%
%TO.N,+5VA*%
X121973016Y-85691659D03*
%TD*%
D14*
%TO.P,C8,1*%
%TO.N,+5VA*%
X123937500Y-63500000D03*
%TO.P,C8,2*%
%TO.N,GNDA*%
X127062500Y-63500000D03*
%TD*%
D12*
%TO.P,H12,1*%
%TO.N,N/C*%
X241967578Y-45108740D03*
D13*
X241967578Y-41883740D03*
X239687159Y-47389159D03*
X238742578Y-45108740D03*
X244247997Y-42828321D03*
X245192578Y-45108740D03*
X239687159Y-42828321D03*
X241967578Y-48333740D03*
X244247997Y-47389159D03*
%TD*%
D15*
%TO.P,TP4,1,1*%
%TO.N,/esp32-SMD/IO15*%
X168500000Y-49750000D03*
%TD*%
%TO.P,TP10,1,1*%
%TO.N,/7-segment-display-SMD/_dpBoard*%
X168641258Y-77893995D03*
%TD*%
D13*
%TO.P,H11,1*%
%TO.N,N/C*%
X199130419Y-47380419D03*
D12*
X196850000Y-45100000D03*
D13*
X193625000Y-45100000D03*
X194569581Y-47380419D03*
X199130419Y-42819581D03*
X200075000Y-45100000D03*
X194569581Y-42819581D03*
X196850000Y-48325000D03*
X196850000Y-41875000D03*
%TD*%
D12*
%TO.P,H7,1*%
%TO.N,N/C*%
X184000000Y-84750000D03*
D13*
X180775000Y-84750000D03*
X181719581Y-82469581D03*
X181719581Y-87030419D03*
X186280419Y-82469581D03*
X184000000Y-87975000D03*
X184000000Y-81525000D03*
X186280419Y-87030419D03*
X187225000Y-84750000D03*
%TD*%
D16*
%TO.P,R25,1*%
%TO.N,/7-segment-display-SMD/_dp*%
X124250000Y-139550000D03*
%TO.P,R25,2*%
%TO.N,/7-segment-display-SMD/_dpBoard*%
X124250000Y-136450000D03*
%TD*%
%TO.P,R19,1*%
%TO.N,/7-segment-display-SMD/_b*%
X134250000Y-139550000D03*
%TO.P,R19,2*%
%TO.N,/7-segment-display-SMD/b*%
X134250000Y-136450000D03*
%TD*%
D23*
%TO.P,U2,1,EN*%
%TO.N,Net-(J4-Pad2)*%
X158696000Y-84284000D03*
%TO.P,U2,2,VP*%
%TO.N,unconnected-(U2-Pad2)*%
X158696000Y-81744000D03*
%TO.P,U2,3,VN*%
%TO.N,unconnected-(U2-Pad3)*%
X158696000Y-79204000D03*
%TO.P,U2,4,D34*%
%TO.N,unconnected-(U2-Pad4)*%
X158696000Y-76664000D03*
%TO.P,U2,5,D35*%
%TO.N,unconnected-(U2-Pad5)*%
X158696000Y-74124000D03*
%TO.P,U2,6,D32*%
%TO.N,unconnected-(U2-Pad6)*%
X158696000Y-71584000D03*
%TO.P,U2,7,D33*%
%TO.N,unconnected-(U2-Pad7)*%
X158696000Y-69044000D03*
%TO.P,U2,8,D25*%
%TO.N,/7-segment-display-SMD/BCD_in2*%
X158696000Y-66504000D03*
%TO.P,U2,9,D26*%
%TO.N,/7-segment-display-SMD/BCD_in3*%
X158696000Y-63964000D03*
%TO.P,U2,10,D27*%
%TO.N,/7-segment-display-SMD/_dpBoard*%
X158696000Y-61424000D03*
%TO.P,U2,11,D14*%
%TO.N,/esp32-SMD/IO14*%
X158696000Y-58884000D03*
%TO.P,U2,12,D12*%
%TO.N,unconnected-(U2-Pad12)*%
X158696000Y-56344000D03*
%TO.P,U2,13,D13*%
%TO.N,/esp32-SMD/button*%
X158696000Y-53804000D03*
%TO.P,U2,14,GND*%
%TO.N,GNDA*%
X158696000Y-51264000D03*
X158696000Y-51264000D03*
%TO.P,U2,15,VIN*%
%TO.N,+5VA*%
X158696000Y-48724000D03*
%TO.P,U2,16,3V3*%
%TO.N,+3.3VA*%
X133804000Y-48724000D03*
%TO.P,U2,17,GND*%
%TO.N,GNDA*%
X133804000Y-51264000D03*
%TO.P,U2,18,D15*%
%TO.N,/esp32-SMD/IO15*%
X133804000Y-53804000D03*
%TO.P,U2,19,D2*%
%TO.N,unconnected-(U2-Pad19)*%
X133804000Y-56344000D03*
%TO.P,U2,20,D4*%
%TO.N,/esp32-SMD/IO4*%
X133804000Y-58884000D03*
%TO.P,U2,21,RX2*%
%TO.N,unconnected-(U2-Pad21)*%
X133804000Y-61424000D03*
%TO.P,U2,22,TX2*%
%TO.N,unconnected-(U2-Pad22)*%
X133804000Y-63964000D03*
%TO.P,U2,23,D5*%
%TO.N,/esp32-SMD/IO5*%
X133804000Y-66504000D03*
%TO.P,U2,24,D18*%
%TO.N,/7-segment-display-SMD/BCD_in4*%
X133804000Y-69044000D03*
%TO.P,U2,25,D19*%
%TO.N,/7-segment-display-SMD/BCD_in1*%
X133804000Y-71584000D03*
%TO.P,U2,26,D21*%
%TO.N,/esp32-SMD/IO21*%
X133804000Y-74124000D03*
%TO.P,U2,27,RX0*%
%TO.N,unconnected-(U2-Pad27)*%
X133804000Y-76664000D03*
%TO.P,U2,28,TX0*%
%TO.N,unconnected-(U2-Pad28)*%
X133804000Y-79204000D03*
%TO.P,U2,29,D22*%
%TO.N,/7-segment-display-SMD/clk-7SegmentDisplay*%
X133804000Y-81744000D03*
%TO.P,U2,30,D23*%
%TO.N,/esp32-SMD/IO23*%
X133804000Y-84284000D03*
%TD*%
D15*
%TO.P,TP7,1,1*%
%TO.N,/esp32-SMD/IO21*%
X174852035Y-72216862D03*
%TD*%
D10*
%TO.P,J3,1,Pin_1*%
%TO.N,+5VA*%
X184250000Y-56925000D03*
D11*
%TO.P,J3,2,Pin_2*%
X184250000Y-59465000D03*
%TO.P,J3,3,Pin_3*%
X184250000Y-62005000D03*
%TO.P,J3,4,Pin_4*%
X184250000Y-64545000D03*
%TO.P,J3,5,Pin_5*%
X184250000Y-67085000D03*
%TD*%
D24*
%TO.P,L1,1,1*%
%TO.N,/power-SMD/inductor1*%
X117947278Y-59872924D03*
%TO.P,L1,2,2*%
%TO.N,/power-SMD/inductor2*%
X122486227Y-59956859D03*
%TD*%
D13*
%TO.P,H6,1*%
%TO.N,N/C*%
X79980419Y-143880419D03*
X74475000Y-141600000D03*
X77700000Y-144825000D03*
D12*
X77700000Y-141600000D03*
D13*
X77700000Y-138375000D03*
X75419581Y-139319581D03*
X79980419Y-139319581D03*
X75419581Y-143880419D03*
X80925000Y-141600000D03*
%TD*%
D25*
%TO.P,R3,1*%
%TO.N,/esp32-SMD/IO14*%
X135750000Y-96000000D03*
%TO.P,R3,2*%
%TO.N,GNDA*%
X137942032Y-93807968D03*
%TD*%
D26*
%TO.P,U1,1,L*%
%TO.N,/power-SMD/inductor1*%
X118775000Y-64000000D03*
%TO.P,U1,2,VIN*%
%TO.N,/power-SMD/Vin-SMD+*%
X118775000Y-64500000D03*
%TO.P,U1,3,SS*%
%TO.N,Net-(C2-Pad1)*%
X118775000Y-65000000D03*
%TO.P,U1,4,GND*%
%TO.N,GNDA*%
X118775000Y-65500000D03*
%TO.P,U1,5,FB*%
%TO.N,Net-(R10-Pad1)*%
X118775000Y-66000000D03*
%TO.P,U1,6,EN*%
%TO.N,/power-SMD/Vin-SMD+*%
X121725000Y-66000000D03*
%TO.P,U1,7,FSW*%
X121725000Y-65500000D03*
%TO.P,U1,8,PGND*%
%TO.N,GNDA*%
X121725000Y-65000000D03*
%TO.P,U1,9,OUT*%
%TO.N,+5VA*%
X121725000Y-64500000D03*
%TO.P,U1,10,SW*%
%TO.N,/power-SMD/inductor2*%
X121725000Y-64000000D03*
D27*
%TO.P,U1,11*%
%TO.N,N/C*%
X119770000Y-65860000D03*
X119770000Y-64140000D03*
X120250000Y-65000000D03*
D28*
X120500000Y-63450000D03*
D27*
X120730000Y-65860000D03*
D29*
X120250000Y-65000000D03*
D28*
X120500000Y-66550000D03*
X120000000Y-63450000D03*
D27*
X120730000Y-64140000D03*
D28*
X120000000Y-66550000D03*
%TD*%
D19*
%TO.P,R14,1*%
%TO.N,Net-(J4-Pad3)*%
X165500000Y-87950000D03*
%TO.P,R14,2*%
%TO.N,GNDA*%
X165500000Y-91050000D03*
%TD*%
D25*
%TO.P,R4,1*%
%TO.N,/7-segment-display-SMD/_ones*%
X132037689Y-99712311D03*
%TO.P,R4,2*%
%TO.N,/esp32-SMD/IO14*%
X134229721Y-97520279D03*
%TD*%
D30*
%TO.P,BT1,1,+*%
%TO.N,/power-SMD/PowerIn+*%
X96449998Y-57495300D03*
%TO.P,BT1,2,-*%
%TO.N,GNDA*%
X96449998Y-120004700D03*
%TO.P,BT1,3*%
%TO.N,N/C*%
X82050002Y-57495300D03*
%TO.P,BT1,4*%
X82050002Y-120004700D03*
%TD*%
D16*
%TO.P,R8,1*%
%TO.N,/7-segment-display-SMD/_hundreds*%
X106500000Y-104300000D03*
%TO.P,R8,2*%
%TO.N,/esp32-SMD/IO4*%
X106500000Y-101200000D03*
%TD*%
D15*
%TO.P,TP5,1,1*%
%TO.N,/7-segment-display-SMD/BCD_in4*%
X174515224Y-55106824D03*
%TD*%
D31*
%TO.P,U6,1,D1*%
%TO.N,/7-segment-display-SMD/BCD_out2*%
X139320000Y-128075000D03*
%TO.P,U6,2,D2*%
%TO.N,/7-segment-display-SMD/BCD_out3*%
X138050000Y-128075000D03*
%TO.P,U6,3,LT*%
%TO.N,+5VA*%
X136780000Y-128075000D03*
%TO.P,U6,4,BL*%
X135510000Y-128075000D03*
%TO.P,U6,5,LE*%
%TO.N,GNDA*%
X134240000Y-128075000D03*
%TO.P,U6,6,D3*%
%TO.N,/7-segment-display-SMD/BCD_out4*%
X132970000Y-128075000D03*
%TO.P,U6,7,D0*%
%TO.N,/7-segment-display-SMD/BCD_out1*%
X131700000Y-128075000D03*
%TO.P,U6,8,GND*%
%TO.N,GNDA*%
X130430000Y-128075000D03*
%TO.P,U6,9,e*%
%TO.N,/7-segment-display-SMD/e*%
X130430000Y-133025000D03*
%TO.P,U6,10,d*%
%TO.N,/7-segment-display-SMD/d*%
X131700000Y-133025000D03*
%TO.P,U6,11,c*%
%TO.N,/7-segment-display-SMD/c*%
X132970000Y-133025000D03*
%TO.P,U6,12,b*%
%TO.N,/7-segment-display-SMD/b*%
X134240000Y-133025000D03*
%TO.P,U6,13,a*%
%TO.N,/7-segment-display-SMD/a*%
X135510000Y-133025000D03*
%TO.P,U6,14,g*%
%TO.N,/7-segment-display-SMD/g*%
X136780000Y-133025000D03*
%TO.P,U6,15,f*%
%TO.N,/7-segment-display-SMD/f*%
X138050000Y-133025000D03*
%TO.P,U6,16,VCC*%
%TO.N,+5VA*%
X139320000Y-133025000D03*
%TD*%
D32*
%TO.P,U11,1,CC*%
%TO.N,+hundreds*%
X211482500Y-54282500D03*
D33*
%TO.P,U11,2,F*%
%TO.N,+f*%
X211482500Y-56822500D03*
%TO.P,U11,3,G*%
%TO.N,+g*%
X211482500Y-59362500D03*
%TO.P,U11,4,E*%
%TO.N,+e*%
X211482500Y-61902500D03*
%TO.P,U11,5,D*%
%TO.N,+d*%
X211482500Y-64442500D03*
%TO.P,U11,6,CC*%
%TO.N,+hundreds*%
X216562500Y-64442500D03*
%TO.P,U11,7,DP*%
%TO.N,+dp*%
X216562500Y-61902500D03*
%TO.P,U11,8,C*%
%TO.N,+c*%
X216562500Y-59362500D03*
%TO.P,U11,9,B*%
%TO.N,+b*%
X216562500Y-56822500D03*
%TO.P,U11,10,A*%
%TO.N,+a*%
X216562500Y-54282500D03*
%TD*%
D16*
%TO.P,R7,1*%
%TO.N,/esp32-SMD/IO4*%
X106500000Y-99300000D03*
%TO.P,R7,2*%
%TO.N,GNDA*%
X106500000Y-96200000D03*
%TD*%
D10*
%TO.P,J6,1,Pin_1*%
%TO.N,/7-segment-display-SMD/_a*%
X141740000Y-145540000D03*
D11*
%TO.P,J6,2,Pin_2*%
%TO.N,/7-segment-display-SMD/thousands*%
X141740000Y-143000000D03*
%TO.P,J6,3,Pin_3*%
%TO.N,/7-segment-display-SMD/_b*%
X139200000Y-145540000D03*
%TO.P,J6,4,Pin_4*%
%TO.N,/7-segment-display-SMD/hundreds*%
X139200000Y-143000000D03*
%TO.P,J6,5,Pin_5*%
%TO.N,/7-segment-display-SMD/_c*%
X136660000Y-145540000D03*
%TO.P,J6,6,Pin_6*%
%TO.N,/7-segment-display-SMD/tens*%
X136660000Y-143000000D03*
%TO.P,J6,7,Pin_7*%
%TO.N,/7-segment-display-SMD/_d*%
X134120000Y-145540000D03*
%TO.P,J6,8,Pin_8*%
%TO.N,/7-segment-display-SMD/ones*%
X134120000Y-143000000D03*
%TO.P,J6,9,Pin_9*%
%TO.N,/7-segment-display-SMD/_e*%
X131580000Y-145540000D03*
%TO.P,J6,10,Pin_10*%
%TO.N,/7-segment-display-SMD/_g*%
X131580000Y-143000000D03*
%TO.P,J6,11,Pin_11*%
%TO.N,/7-segment-display-SMD/_f*%
X129040000Y-145540000D03*
%TO.P,J6,12,Pin_12*%
%TO.N,/7-segment-display-SMD/_dp*%
X129040000Y-143000000D03*
%TO.P,J6,13,Pin_13*%
%TO.N,unconnected-(J6-Pad13)*%
X126500000Y-145540000D03*
%TO.P,J6,14,Pin_14*%
%TO.N,unconnected-(J6-Pad14)*%
X126500000Y-143000000D03*
%TD*%
D15*
%TO.P,TP11,1,1*%
%TO.N,/7-segment-display-SMD/clk-7SegmentDisplay*%
X174717311Y-66827874D03*
%TD*%
D34*
%TO.P,C3,1*%
%TO.N,+5VA*%
X115687500Y-74250000D03*
%TO.P,C3,2*%
%TO.N,Net-(C3-Pad2)*%
X118812500Y-74250000D03*
%TD*%
D35*
%TO.P,U13,1,RED*%
%TO.N,Net-(J8-Pad5)*%
X173190000Y-111961199D03*
%TO.P,U13,2,BLK*%
%TO.N,Net-(J8-Pad4)*%
X173190000Y-109421199D03*
%TO.P,U13,3,WHT*%
%TO.N,Net-(J8-Pad3)*%
X173190000Y-106881199D03*
%TO.P,U13,4,GRN*%
%TO.N,Net-(J8-Pad2)*%
X173190000Y-104341199D03*
%TO.P,U13,5,YLW*%
%TO.N,Net-(J8-Pad1)*%
X173190000Y-101801199D03*
%TO.P,U13,6,GND*%
%TO.N,GNDA*%
X145250000Y-101801199D03*
%TO.P,U13,7,CLK*%
%TO.N,/esp32-SMD/IO21*%
X145250000Y-104341199D03*
%TO.P,U13,8,DAT*%
%TO.N,/esp32-SMD/IO23*%
X145250000Y-106881199D03*
%TO.P,U13,9,VCC*%
%TO.N,+5VA*%
X145250000Y-109421199D03*
%TO.P,U13,10,VDD*%
%TO.N,+3.3VA*%
X145250000Y-111961199D03*
%TO.P,U13,11*%
%TO.N,unconnected-(U13-Pad11)*%
X152870000Y-104341199D03*
%TO.P,U13,12*%
%TO.N,unconnected-(U13-Pad12)*%
X152870000Y-101801199D03*
%TD*%
D19*
%TO.P,R5,1*%
%TO.N,/esp32-SMD/IO5*%
X106500000Y-90700000D03*
%TO.P,R5,2*%
%TO.N,GNDA*%
X106500000Y-93800000D03*
%TD*%
D25*
%TO.P,R2,1*%
%TO.N,/7-segment-display-SMD/_thousands*%
X123691673Y-94558327D03*
%TO.P,R2,2*%
%TO.N,/esp32-SMD/IO15*%
X125883705Y-92366295D03*
%TD*%
D32*
%TO.P,U12,1,CC*%
%TO.N,+thousands*%
X220792500Y-54282500D03*
D33*
%TO.P,U12,2,F*%
%TO.N,+f*%
X220792500Y-56822500D03*
%TO.P,U12,3,G*%
%TO.N,+g*%
X220792500Y-59362500D03*
%TO.P,U12,4,E*%
%TO.N,+e*%
X220792500Y-61902500D03*
%TO.P,U12,5,D*%
%TO.N,+d*%
X220792500Y-64442500D03*
%TO.P,U12,6,CC*%
%TO.N,+thousands*%
X225872500Y-64442500D03*
%TO.P,U12,7,DP*%
%TO.N,+dp*%
X225872500Y-61902500D03*
%TO.P,U12,8,C*%
%TO.N,+c*%
X225872500Y-59362500D03*
%TO.P,U12,9,B*%
%TO.N,+b*%
X225872500Y-56822500D03*
%TO.P,U12,10,A*%
%TO.N,+a*%
X225872500Y-54282500D03*
%TD*%
D36*
%TO.P,C2,1*%
%TO.N,Net-(C2-Pad1)*%
X116250000Y-65887500D03*
%TO.P,C2,2*%
%TO.N,GNDA*%
X116250000Y-67612500D03*
%TD*%
D32*
%TO.P,U9,1,CC*%
%TO.N,+ones*%
X202172500Y-54282500D03*
D33*
%TO.P,U9,2,F*%
%TO.N,+f*%
X202172500Y-56822500D03*
%TO.P,U9,3,G*%
%TO.N,+g*%
X202172500Y-59362500D03*
%TO.P,U9,4,E*%
%TO.N,+e*%
X202172500Y-61902500D03*
%TO.P,U9,5,D*%
%TO.N,+d*%
X202172500Y-64442500D03*
%TO.P,U9,6,CC*%
%TO.N,+ones*%
X207252500Y-64442500D03*
%TO.P,U9,7,DP*%
%TO.N,+dp*%
X207252500Y-61902500D03*
%TO.P,U9,8,C*%
%TO.N,+c*%
X207252500Y-59362500D03*
%TO.P,U9,9,B*%
%TO.N,+b*%
X207252500Y-56822500D03*
%TO.P,U9,10,A*%
%TO.N,+a*%
X207252500Y-54282500D03*
%TD*%
D37*
%TO.P,Q1,1,G*%
%TO.N,Net-(D1-Pad2)*%
X109210000Y-56275000D03*
D38*
%TO.P,Q1,2,D*%
%TO.N,Net-(Q1-Pad2)*%
X111750000Y-47125000D03*
D37*
X111750000Y-56275000D03*
%TO.P,Q1,3,S*%
%TO.N,/power-SMD/Vin-SMD+*%
X114290000Y-56275000D03*
%TD*%
D10*
%TO.P,J5,1,Pin_1*%
%TO.N,+5VA*%
X108203972Y-73942556D03*
D11*
%TO.P,J5,2,Pin_2*%
%TO.N,Net-(J5-Pad2)*%
X108203972Y-76482556D03*
%TO.P,J5,3,Pin_3*%
%TO.N,GNDA*%
X108203972Y-79022556D03*
%TD*%
D10*
%TO.P,J4,1,Pin_1*%
%TO.N,GNDA*%
X162725000Y-85000000D03*
D11*
%TO.P,J4,2,Pin_2*%
%TO.N,Net-(J4-Pad2)*%
X165265000Y-85000000D03*
%TO.P,J4,3,Pin_3*%
%TO.N,Net-(J4-Pad3)*%
X167805000Y-85000000D03*
%TD*%
D39*
%TO.P,S1,1,A*%
%TO.N,/esp32-SMD/button*%
X167000000Y-144750000D03*
D40*
%TO.P,S1,2,B*%
%TO.N,GNDA*%
X167000000Y-139750000D03*
%TD*%
D32*
%TO.P,U10,1,CC*%
%TO.N,+tens*%
X230102500Y-54282500D03*
D33*
%TO.P,U10,2,F*%
%TO.N,+f*%
X230102500Y-56822500D03*
%TO.P,U10,3,G*%
%TO.N,+g*%
X230102500Y-59362500D03*
%TO.P,U10,4,E*%
%TO.N,+e*%
X230102500Y-61902500D03*
%TO.P,U10,5,D*%
%TO.N,+d*%
X230102500Y-64442500D03*
%TO.P,U10,6,CC*%
%TO.N,+tens*%
X235182500Y-64442500D03*
%TO.P,U10,7,DP*%
%TO.N,+dp*%
X235182500Y-61902500D03*
%TO.P,U10,8,C*%
%TO.N,+c*%
X235182500Y-59362500D03*
%TO.P,U10,9,B*%
%TO.N,+b*%
X235182500Y-56822500D03*
%TO.P,U10,10,A*%
%TO.N,+a*%
X235182500Y-54282500D03*
%TD*%
D13*
%TO.P,H3,1*%
%TO.N,N/C*%
X186655419Y-44619581D03*
X187600000Y-46900000D03*
X182094581Y-49180419D03*
X184375000Y-43675000D03*
X186655419Y-49180419D03*
X181150000Y-46900000D03*
D12*
X184375000Y-46900000D03*
D13*
X182094581Y-44619581D03*
X184375000Y-50125000D03*
%TD*%
D14*
%TO.P,C10,1*%
%TO.N,+5VA*%
X124215515Y-86141659D03*
%TO.P,C10,2*%
%TO.N,GNDA*%
X127340515Y-86141659D03*
%TD*%
D16*
%TO.P,R15,1*%
%TO.N,+5VA*%
X153250000Y-140300000D03*
%TO.P,R15,2*%
%TO.N,Net-(R15-Pad2)*%
X153250000Y-137200000D03*
%TD*%
%TO.P,R13,1*%
%TO.N,+5VA*%
X162500000Y-91050000D03*
%TO.P,R13,2*%
%TO.N,Net-(J4-Pad3)*%
X162500000Y-87950000D03*
%TD*%
D15*
%TO.P,TP9,1,1*%
%TO.N,/7-segment-display-SMD/BCD_in3*%
X168836172Y-66621456D03*
%TD*%
D41*
%TO.P,C9,1*%
%TO.N,+5VA*%
X142500000Y-120937500D03*
%TO.P,C9,2*%
%TO.N,GNDA*%
X142500000Y-124062500D03*
%TD*%
D42*
%TO.P,U3,1,1OE*%
%TO.N,/7-segment-display-SMD/_thousands*%
X120743016Y-107991659D03*
%TO.P,U3,2,1A0*%
%TO.N,/7-segment-display-SMD/BCD_in1*%
X119473016Y-107991659D03*
%TO.P,U3,3,2Y0*%
%TO.N,/7-segment-display-SMD/BCD_out1*%
X118203016Y-107991659D03*
%TO.P,U3,4,1A1*%
%TO.N,/7-segment-display-SMD/BCD_in2*%
X116933016Y-107991659D03*
%TO.P,U3,5,2Y1*%
%TO.N,/7-segment-display-SMD/BCD_out2*%
X115663016Y-107991659D03*
%TO.P,U3,6,1A2*%
%TO.N,/7-segment-display-SMD/BCD_in3*%
X114393016Y-107991659D03*
%TO.P,U3,7,2Y2*%
%TO.N,/7-segment-display-SMD/BCD_out3*%
X113123016Y-107991659D03*
%TO.P,U3,8,1A3*%
%TO.N,/7-segment-display-SMD/BCD_in4*%
X111853016Y-107991659D03*
%TO.P,U3,9,2Y3*%
%TO.N,/7-segment-display-SMD/BCD_out4*%
X110583016Y-107991659D03*
%TO.P,U3,10,GND*%
%TO.N,GNDA*%
X109313016Y-107991659D03*
%TO.P,U3,11,2A3*%
%TO.N,/7-segment-display-SMD/BCD_in4*%
X109313016Y-117291659D03*
%TO.P,U3,12,1Y3*%
%TO.N,/7-segment-display-SMD/BCD_out4*%
X110583016Y-117291659D03*
%TO.P,U3,13,2A2*%
%TO.N,/7-segment-display-SMD/BCD_in3*%
X111853016Y-117291659D03*
%TO.P,U3,14,1Y2*%
%TO.N,/7-segment-display-SMD/BCD_out3*%
X113123016Y-117291659D03*
%TO.P,U3,15,2A1*%
%TO.N,/7-segment-display-SMD/BCD_in2*%
X114393016Y-117291659D03*
%TO.P,U3,16,1Y1*%
%TO.N,/7-segment-display-SMD/BCD_out2*%
X115663016Y-117291659D03*
%TO.P,U3,17,2A0*%
%TO.N,/7-segment-display-SMD/BCD_in1*%
X116933016Y-117291659D03*
%TO.P,U3,18,1Y0*%
%TO.N,/7-segment-display-SMD/BCD_out1*%
X118203016Y-117291659D03*
%TO.P,U3,19,2OE*%
%TO.N,/7-segment-display-SMD/_ones*%
X119473016Y-117291659D03*
%TO.P,U3,20,VCC*%
%TO.N,+5VA*%
X120743016Y-117291659D03*
%TD*%
D17*
%TO.P,R17,1*%
%TO.N,Net-(R15-Pad2)*%
X153950000Y-145000000D03*
%TO.P,R17,2*%
%TO.N,/esp32-SMD/button*%
X157050000Y-145000000D03*
%TD*%
D25*
%TO.P,R1,1*%
%TO.N,/esp32-SMD/IO15*%
X127403984Y-90846016D03*
%TO.P,R1,2*%
%TO.N,GNDA*%
X129596016Y-88653984D03*
%TD*%
D13*
%TO.P,H2,1*%
%TO.N,N/C*%
X167023496Y-130418552D03*
X171266136Y-130418552D03*
X166144816Y-128297232D03*
X169144816Y-125297232D03*
D43*
X169144816Y-128297232D03*
D13*
X171266136Y-126175912D03*
X169144816Y-131297232D03*
X172144816Y-128297232D03*
X167023496Y-126175912D03*
%TD*%
D15*
%TO.P,TP1,1,1*%
%TO.N,/esp32-SMD/IO4*%
X174500000Y-49500000D03*
%TD*%
D13*
%TO.P,H8,1*%
%TO.N,N/C*%
X184300000Y-138775000D03*
X184300000Y-145225000D03*
X181075000Y-142000000D03*
X182019581Y-139719581D03*
X187525000Y-142000000D03*
X186580419Y-144280419D03*
X186580419Y-139719581D03*
X182019581Y-144280419D03*
D12*
X184300000Y-142000000D03*
%TD*%
D31*
%TO.P,U5,1*%
%TO.N,Net-(U4-Pad3)*%
X120838015Y-99416659D03*
%TO.P,U5,2*%
%TO.N,/7-segment-display-SMD/_thousands*%
X119568015Y-99416659D03*
%TO.P,U5,3*%
%TO.N,Net-(U4-Pad2)*%
X118298015Y-99416659D03*
%TO.P,U5,4*%
%TO.N,/7-segment-display-SMD/_ones*%
X117028015Y-99416659D03*
%TO.P,U5,5*%
%TO.N,Net-(U4-Pad4)*%
X115758015Y-99416659D03*
%TO.P,U5,6*%
%TO.N,/7-segment-display-SMD/_tens*%
X114488015Y-99416659D03*
%TO.P,U5,7,GND*%
%TO.N,GNDA*%
X113218015Y-99416659D03*
%TO.P,U5,8*%
%TO.N,/7-segment-display-SMD/_hundreds*%
X113218015Y-104366659D03*
%TO.P,U5,9*%
%TO.N,Net-(U4-Pad7)*%
X114488015Y-104366659D03*
%TO.P,U5,10*%
%TO.N,N/C*%
X115758015Y-104366659D03*
%TO.P,U5,11*%
X117028015Y-104366659D03*
%TO.P,U5,12*%
X118298015Y-104366659D03*
%TO.P,U5,13*%
X119568015Y-104366659D03*
%TO.P,U5,14,VCC*%
%TO.N,+5VA*%
X120838015Y-104366659D03*
%TD*%
D13*
%TO.P,H10,1*%
%TO.N,N/C*%
X239494211Y-69712352D03*
D12*
X241774630Y-71992771D03*
D13*
X239494211Y-74273190D03*
X241774630Y-68767771D03*
X244055049Y-69712352D03*
X244999630Y-71992771D03*
X241774630Y-75217771D03*
X238549630Y-71992771D03*
X244055049Y-74273190D03*
%TD*%
%TO.P,H5,1*%
%TO.N,N/C*%
X108000000Y-139525000D03*
X104775000Y-142750000D03*
D12*
X108000000Y-142750000D03*
D13*
X111225000Y-142750000D03*
X105719581Y-145030419D03*
X108000000Y-145975000D03*
X110280419Y-145030419D03*
X105719581Y-140469581D03*
X110280419Y-140469581D03*
%TD*%
D16*
%TO.P,R21,1*%
%TO.N,/7-segment-display-SMD/_d*%
X129250000Y-139550000D03*
%TO.P,R21,2*%
%TO.N,/7-segment-display-SMD/d*%
X129250000Y-136450000D03*
%TD*%
D44*
%TO.P,C4,1*%
%TO.N,+5VA*%
X127250000Y-57312500D03*
%TO.P,C4,2*%
%TO.N,GNDA*%
X127250000Y-54187500D03*
%TD*%
D23*
%TO.P,SW2,1,1*%
%TO.N,Net-(SW1-Pad2)*%
X102750000Y-44500000D03*
%TO.P,SW2,2,2*%
%TO.N,Net-(Q1-Pad2)*%
X102750000Y-49500000D03*
%TO.P,SW2,3,3*%
%TO.N,Net-(SW1-Pad2)*%
X96750000Y-44500000D03*
%TO.P,SW2,4,4*%
%TO.N,Net-(Q1-Pad2)*%
X96750000Y-49500000D03*
%TD*%
D45*
%TO.P,SW1,1*%
%TO.N,/power-SMD/PowerIn+*%
X88250000Y-44725000D03*
D46*
%TO.P,SW1,2*%
%TO.N,Net-(SW1-Pad2)*%
X90750000Y-44725000D03*
%TD*%
D13*
%TO.P,H4,1*%
%TO.N,N/C*%
X74969581Y-49030419D03*
D12*
X77250000Y-46750000D03*
D13*
X80475000Y-46750000D03*
X77250000Y-49975000D03*
X74969581Y-44469581D03*
X74025000Y-46750000D03*
X79530419Y-49030419D03*
X77250000Y-43525000D03*
X79530419Y-44469581D03*
%TD*%
D12*
%TO.P,H9,1*%
%TO.N,N/C*%
X196850000Y-72100000D03*
D13*
X196850000Y-75325000D03*
X194569581Y-74380419D03*
X199130419Y-69819581D03*
X200075000Y-72100000D03*
X196850000Y-68875000D03*
X194569581Y-69819581D03*
X199130419Y-74380419D03*
X193625000Y-72100000D03*
%TD*%
D15*
%TO.P,TP6,1,1*%
%TO.N,/7-segment-display-SMD/BCD_in1*%
X168673743Y-55576317D03*
%TD*%
D16*
%TO.P,R18,1*%
%TO.N,/7-segment-display-SMD/_a*%
X136750000Y-139550000D03*
%TO.P,R18,2*%
%TO.N,/7-segment-display-SMD/a*%
X136750000Y-136450000D03*
%TD*%
D47*
%TO.P,C1,1*%
%TO.N,/power-SMD/Vin-SMD+*%
X113750000Y-64187500D03*
%TO.P,C1,2*%
%TO.N,GNDA*%
X113750000Y-67312500D03*
%TD*%
D10*
%TO.P,J7,1,Pin_1*%
%TO.N,+a*%
X210100000Y-44850000D03*
D11*
%TO.P,J7,2,Pin_2*%
%TO.N,+thousands*%
X210100000Y-47390000D03*
%TO.P,J7,3,Pin_3*%
%TO.N,+b*%
X212640000Y-44850000D03*
%TO.P,J7,4,Pin_4*%
%TO.N,+hundreds*%
X212640000Y-47390000D03*
%TO.P,J7,5,Pin_5*%
%TO.N,+c*%
X215180000Y-44850000D03*
%TO.P,J7,6,Pin_6*%
%TO.N,+tens*%
X215180000Y-47390000D03*
%TO.P,J7,7,Pin_7*%
%TO.N,+d*%
X217720000Y-44850000D03*
%TO.P,J7,8,Pin_8*%
%TO.N,+ones*%
X217720000Y-47390000D03*
%TO.P,J7,9,Pin_9*%
%TO.N,+e*%
X220260000Y-44850000D03*
%TO.P,J7,10,Pin_10*%
%TO.N,+dp*%
X220260000Y-47390000D03*
%TO.P,J7,11,Pin_11*%
%TO.N,+f*%
X222800000Y-44850000D03*
%TO.P,J7,12,Pin_12*%
%TO.N,+g*%
X222800000Y-47390000D03*
%TO.P,J7,13,Pin_13*%
%TO.N,unconnected-(J7-Pad13)*%
X225340000Y-44850000D03*
%TO.P,J7,14,Pin_14*%
%TO.N,unconnected-(J7-Pad14)*%
X225340000Y-47390000D03*
%TD*%
D42*
%TO.P,U7,1,1OE*%
%TO.N,/7-segment-display-SMD/_tens*%
X141493015Y-107991659D03*
%TO.P,U7,2,1A0*%
%TO.N,/7-segment-display-SMD/BCD_in1*%
X140223015Y-107991659D03*
%TO.P,U7,3,2Y0*%
%TO.N,/7-segment-display-SMD/BCD_out1*%
X138953015Y-107991659D03*
%TO.P,U7,4,1A1*%
%TO.N,/7-segment-display-SMD/BCD_in2*%
X137683015Y-107991659D03*
%TO.P,U7,5,2Y1*%
%TO.N,/7-segment-display-SMD/BCD_out2*%
X136413015Y-107991659D03*
%TO.P,U7,6,1A2*%
%TO.N,/7-segment-display-SMD/BCD_in3*%
X135143015Y-107991659D03*
%TO.P,U7,7,2Y2*%
%TO.N,/7-segment-display-SMD/BCD_out3*%
X133873015Y-107991659D03*
%TO.P,U7,8,1A3*%
%TO.N,/7-segment-display-SMD/BCD_in4*%
X132603015Y-107991659D03*
%TO.P,U7,9,2Y3*%
%TO.N,/7-segment-display-SMD/BCD_out4*%
X131333015Y-107991659D03*
%TO.P,U7,10,GND*%
%TO.N,GNDA*%
X130063015Y-107991659D03*
%TO.P,U7,11,2A3*%
%TO.N,/7-segment-display-SMD/BCD_in4*%
X130063015Y-117291659D03*
%TO.P,U7,12,1Y3*%
%TO.N,/7-segment-display-SMD/BCD_out4*%
X131333015Y-117291659D03*
%TO.P,U7,13,2A2*%
%TO.N,/7-segment-display-SMD/BCD_in3*%
X132603015Y-117291659D03*
%TO.P,U7,14,1Y2*%
%TO.N,/7-segment-display-SMD/BCD_out3*%
X133873015Y-117291659D03*
%TO.P,U7,15,2A1*%
%TO.N,/7-segment-display-SMD/BCD_in2*%
X135143015Y-117291659D03*
%TO.P,U7,16,1Y1*%
%TO.N,/7-segment-display-SMD/BCD_out2*%
X136413015Y-117291659D03*
%TO.P,U7,17,2A0*%
%TO.N,/7-segment-display-SMD/BCD_in1*%
X137683015Y-117291659D03*
%TO.P,U7,18,1Y0*%
%TO.N,/7-segment-display-SMD/BCD_out1*%
X138953015Y-117291659D03*
%TO.P,U7,19,2OE*%
%TO.N,/7-segment-display-SMD/_hundreds*%
X140223015Y-117291659D03*
%TO.P,U7,20,VCC*%
%TO.N,+5VA*%
X141493015Y-117291659D03*
%TD*%
D16*
%TO.P,R23,1*%
%TO.N,/7-segment-display-SMD/_f*%
X141750000Y-139550000D03*
%TO.P,R23,2*%
%TO.N,/7-segment-display-SMD/f*%
X141750000Y-136450000D03*
%TD*%
D31*
%TO.P,U8,1,I1*%
%TO.N,Net-(U4-Pad3)*%
X121473015Y-90166658D03*
%TO.P,U8,2,I2*%
%TO.N,Net-(U4-Pad2)*%
X120203015Y-90166658D03*
%TO.P,U8,3,I3*%
%TO.N,Net-(U4-Pad4)*%
X118933015Y-90166658D03*
%TO.P,U8,4,I4*%
%TO.N,Net-(U4-Pad7)*%
X117663015Y-90166658D03*
%TO.P,U8,5,I5*%
%TO.N,unconnected-(U8-Pad5)*%
X116393015Y-90166658D03*
%TO.P,U8,6,I6*%
%TO.N,unconnected-(U8-Pad6)*%
X115123015Y-90166658D03*
%TO.P,U8,7,I7*%
%TO.N,unconnected-(U8-Pad7)*%
X113853015Y-90166658D03*
%TO.P,U8,8,GND*%
%TO.N,GNDA*%
X112583015Y-90166658D03*
%TO.P,U8,9,COM*%
%TO.N,unconnected-(U8-Pad9)*%
X112583015Y-95116658D03*
%TO.P,U8,10,O7*%
%TO.N,unconnected-(U8-Pad10)*%
X113853015Y-95116658D03*
%TO.P,U8,11,O6*%
%TO.N,unconnected-(U8-Pad11)*%
X115123015Y-95116658D03*
%TO.P,U8,12,O5*%
%TO.N,unconnected-(U8-Pad12)*%
X116393015Y-95116658D03*
%TO.P,U8,13,O4*%
%TO.N,/7-segment-display-SMD/hundreds*%
X117663015Y-95116658D03*
%TO.P,U8,14,O3*%
%TO.N,/7-segment-display-SMD/tens*%
X118933015Y-95116658D03*
%TO.P,U8,15,O2*%
%TO.N,/7-segment-display-SMD/ones*%
X120203015Y-95116658D03*
%TO.P,U8,16,O1*%
%TO.N,/7-segment-display-SMD/thousands*%
X121473015Y-95116658D03*
%TD*%
D15*
%TO.P,TP3,1,1*%
%TO.N,/esp32-SMD/IO14*%
X168836172Y-61131372D03*
%TD*%
D14*
%TO.P,C7,1*%
%TO.N,+5VA*%
X124465515Y-119141659D03*
%TO.P,C7,2*%
%TO.N,GNDA*%
X127590515Y-119141659D03*
%TD*%
D16*
%TO.P,R24,1*%
%TO.N,/7-segment-display-SMD/_g*%
X139250000Y-139550000D03*
%TO.P,R24,2*%
%TO.N,/7-segment-display-SMD/g*%
X139250000Y-136450000D03*
%TD*%
D19*
%TO.P,R10,1*%
%TO.N,Net-(R10-Pad1)*%
X118750000Y-68649999D03*
%TO.P,R10,2*%
%TO.N,Net-(C3-Pad2)*%
X118750000Y-71749999D03*
%TD*%
D48*
%TO.P,R11,1*%
%TO.N,+5VA*%
X124300000Y-69000000D03*
%TO.P,R11,2*%
%TO.N,Net-(C3-Pad2)*%
X121200000Y-69000000D03*
%TD*%
D19*
%TO.P,R6,1*%
%TO.N,/7-segment-display-SMD/_tens*%
X106500000Y-85450000D03*
%TO.P,R6,2*%
%TO.N,/esp32-SMD/IO5*%
X106500000Y-88550000D03*
%TD*%
%TO.P,R9,1*%
%TO.N,Net-(D1-Pad2)*%
X110500000Y-59700000D03*
%TO.P,R9,2*%
%TO.N,GNDA*%
X110500000Y-62800000D03*
%TD*%
D49*
%TO.N,GNDA*%
X108750000Y-63000000D03*
X108500000Y-94000000D03*
X108028015Y-105641659D03*
X146778015Y-119891657D03*
X111528015Y-98891659D03*
X126500000Y-73000000D03*
X128750000Y-85500000D03*
X128500000Y-63500000D03*
X128028015Y-127641658D03*
X112250000Y-67500000D03*
X111278015Y-79391657D03*
X136500000Y-92750000D03*
X127000000Y-66000000D03*
X157500000Y-142500000D03*
X108750000Y-81250000D03*
X145000000Y-123250000D03*
X129278015Y-119891659D03*
X110500000Y-64750000D03*
X116250000Y-69000000D03*
X164750000Y-92250000D03*
X114000000Y-69000000D03*
X181000000Y-92750000D03*
X129000000Y-54000000D03*
X143750000Y-131000000D03*
X134278015Y-129891657D03*
X129500000Y-106000000D03*
X108500000Y-96000000D03*
X156500000Y-50500000D03*
X142750000Y-101250000D03*
X117518636Y-66055907D03*
X167000000Y-135250000D03*
X123000000Y-65500000D03*
X136250000Y-52500000D03*
X164000000Y-86750000D03*
X110778015Y-89141659D03*
X117778015Y-87641657D03*
X130000000Y-86500000D03*
%TO.N,/power-SMD/Vin-SMD+*%
X120000000Y-67500000D03*
X116250000Y-63750000D03*
%TO.N,+5VA*%
X121278015Y-119141657D03*
X179250000Y-93000000D03*
X122778015Y-87641657D03*
X112750000Y-74750000D03*
X122028016Y-105141656D03*
X109250000Y-71000000D03*
X134528015Y-125891659D03*
X127250000Y-59000000D03*
X145000000Y-121750000D03*
X180750000Y-56250000D03*
X163250000Y-92250000D03*
X143250000Y-108000000D03*
X152000000Y-142000000D03*
X142000000Y-131000000D03*
%TO.N,/7-segment-display-SMD/_dpBoard*%
X121500000Y-137750000D03*
%TO.N,/7-segment-display-SMD/_hundreds*%
X136958515Y-105750000D03*
X113500000Y-102750000D03*
X139987701Y-106262299D03*
X110250000Y-105250000D03*
%TO.N,/7-segment-display-SMD/_tens*%
X117000000Y-101750000D03*
X114500000Y-101250000D03*
X138487701Y-104762299D03*
X115750000Y-97750000D03*
X129262299Y-98237701D03*
X114250000Y-88250000D03*
%TO.N,/7-segment-display-SMD/_ones*%
X120028016Y-115866158D03*
X118500000Y-102275500D03*
%TO.N,/7-segment-display-SMD/_thousands*%
X119778015Y-100891658D03*
X120778016Y-106141657D03*
%TO.N,/7-segment-display-SMD/BCD_in4*%
X126459844Y-96709844D03*
X111750000Y-105500000D03*
X123028015Y-117391657D03*
X123028014Y-109141658D03*
X123028014Y-112141659D03*
X123028014Y-113167159D03*
%TO.N,/7-segment-display-SMD/BCD_in1*%
X156250000Y-58521989D03*
X129500000Y-99500000D03*
X127528014Y-100917157D03*
X127528015Y-113141656D03*
X127528015Y-109891659D03*
X127528015Y-116141657D03*
%TO.N,/esp32-SMD/IO21*%
X138975020Y-89000000D03*
X152250000Y-80500000D03*
%TO.N,/7-segment-display-SMD/BCD_in2*%
X126028015Y-99891657D03*
X126028015Y-114667158D03*
X126028015Y-112391658D03*
X126028015Y-110641657D03*
X126028015Y-113891657D03*
%TO.N,/7-segment-display-SMD/BCD_in3*%
X126320820Y-98936005D03*
X124528015Y-113891658D03*
X124528016Y-111391659D03*
X124528016Y-115391659D03*
X124528016Y-112641657D03*
%TO.N,/7-segment-display-SMD/clk-7SegmentDisplay*%
X153500000Y-62750000D03*
X128500000Y-81750000D03*
%TO.N,/esp32-SMD/IO23*%
X149500000Y-73000000D03*
%TO.N,/esp32-SMD/IO14*%
X136500000Y-90250000D03*
X136347144Y-87847144D03*
%TO.N,+thousands*%
X231600000Y-63100000D03*
%TO.N,+hundreds*%
X215450000Y-51400000D03*
X211600000Y-51350000D03*
%TO.N,+f*%
X222850000Y-56850000D03*
X228100000Y-54850000D03*
%TO.N,/7-segment-display-SMD/thousands*%
X124000000Y-96750000D03*
%TO.N,/7-segment-display-SMD/hundreds*%
X118249989Y-97842159D03*
%TO.N,/7-segment-display-SMD/tens*%
X118760258Y-96982723D03*
X121567454Y-106754676D03*
X122250000Y-104000000D03*
%TO.N,/7-segment-display-SMD/ones*%
X120302995Y-93500000D03*
%TO.N,/7-segment-display-SMD/BCD_out1*%
X131625000Y-120999997D03*
X138778015Y-115391659D03*
X119228016Y-109688132D03*
X118614935Y-115866159D03*
X137501252Y-110114896D03*
X138375001Y-121000000D03*
X121875001Y-121000000D03*
%TO.N,/7-segment-display-SMD/BCD_out2*%
X134981252Y-110094896D03*
X136278015Y-115391659D03*
X116834778Y-115448420D03*
X116778015Y-109641657D03*
X121875001Y-122499999D03*
X135375000Y-122499999D03*
%TO.N,/7-segment-display-SMD/BCD_out3*%
X133000000Y-110200000D03*
X132711252Y-115458422D03*
X133875000Y-123750000D03*
X114189778Y-109729894D03*
X114064778Y-115678421D03*
X121625000Y-123750000D03*
%TO.N,/7-segment-display-SMD/BCD_out4*%
X131278015Y-110141657D03*
X110528016Y-115391659D03*
X132875000Y-124999999D03*
X138375000Y-125000000D03*
X110528016Y-109891658D03*
X130528015Y-115141657D03*
X121625000Y-124999998D03*
%TO.N,Net-(U4-Pad10)*%
X115290315Y-87129359D03*
X120528015Y-87891657D03*
%TO.N,Net-(J5-Pad2)*%
X115278015Y-83641659D03*
%TO.N,/esp32-SMD/IO5*%
X128250000Y-93250000D03*
X141500000Y-105750000D03*
X114250000Y-92750000D03*
X137250000Y-102500000D03*
X126250000Y-94750000D03*
%TO.N,/esp32-SMD/IO4*%
X108000000Y-99250000D03*
%TD*%
D50*
%TO.N,/power-SMD/PowerIn+*%
X96449998Y-57495300D02*
X93245300Y-57495300D01*
X88000000Y-52250000D02*
X88000000Y-44975000D01*
X93245300Y-57495300D02*
X88000000Y-52250000D01*
D51*
X88000000Y-44975000D02*
X88250000Y-44725000D01*
%TO.N,GNDA*%
X129596016Y-86903984D02*
X130000000Y-86500000D01*
X127590516Y-119141659D02*
X128528015Y-119141657D01*
X127062500Y-63500000D02*
X127062500Y-65937500D01*
X108028015Y-106706658D02*
X108028015Y-105641659D01*
D52*
X144562500Y-123687500D02*
X145000000Y-123250000D01*
X158696000Y-51264000D02*
X157264000Y-51264000D01*
D51*
X118163015Y-85691659D02*
X118163015Y-87256659D01*
X112583016Y-90166659D02*
X111803015Y-90166659D01*
X108300000Y-93800000D02*
X108500000Y-94000000D01*
X128812500Y-54187500D02*
X129000000Y-54000000D01*
X144590515Y-133141658D02*
X144590515Y-131840515D01*
X157000000Y-140300000D02*
X157000000Y-142000000D01*
D52*
X143301199Y-101801199D02*
X142750000Y-101250000D01*
D51*
X121725000Y-65000000D02*
X122500000Y-65000000D01*
X130430000Y-128075000D02*
X129996659Y-127641658D01*
X130063015Y-107991659D02*
X130063015Y-106563015D01*
D52*
X144562500Y-124062500D02*
X144562500Y-123687500D01*
D51*
X127340515Y-86141659D02*
X128108341Y-86141659D01*
X127062500Y-63500000D02*
X128500000Y-63500000D01*
X134240000Y-129853644D02*
X134278015Y-129891657D01*
X106500000Y-96200000D02*
X108300000Y-96200000D01*
D52*
X135014000Y-51264000D02*
X136250000Y-52500000D01*
D51*
X131870587Y-129891658D02*
X134278015Y-129891657D01*
D52*
X157264000Y-51264000D02*
X156500000Y-50500000D01*
D51*
X146840516Y-119829157D02*
X146778015Y-119891657D01*
X162725000Y-85475000D02*
X163750000Y-86500000D01*
D52*
X165500000Y-91500000D02*
X164750000Y-92250000D01*
D51*
X112078016Y-78591659D02*
X111278015Y-79391657D01*
X114000000Y-67500000D02*
X112250000Y-67500000D01*
X127062500Y-65937500D02*
X127000000Y-66000000D01*
X130063015Y-107991659D02*
X129491659Y-107991659D01*
X118074543Y-65500000D02*
X117518636Y-66055907D01*
D52*
X142500000Y-124062500D02*
X144562500Y-124062500D01*
D51*
X111803015Y-90166659D02*
X110778015Y-89141659D01*
X128108341Y-86141659D02*
X128750000Y-85500000D01*
X110500000Y-63050000D02*
X108800000Y-63050000D01*
X108800000Y-63050000D02*
X108750000Y-63000000D01*
X128528015Y-119141657D02*
X129278015Y-119891659D01*
X130430000Y-128075000D02*
X130430000Y-128451072D01*
D52*
X133804000Y-51264000D02*
X135014000Y-51264000D01*
D51*
X162725000Y-85000000D02*
X162725000Y-85475000D01*
X129996659Y-127641658D02*
X128028015Y-127641658D01*
X181553600Y-94999999D02*
X181553600Y-93303600D01*
X165500000Y-90800000D02*
X165500000Y-91500000D01*
X116250000Y-67612500D02*
X116250000Y-69000000D01*
X109313014Y-107991657D02*
X108028015Y-106706658D01*
X118775000Y-65500000D02*
X118074543Y-65500000D01*
D52*
X127250000Y-54187500D02*
X128812500Y-54187500D01*
D51*
X129596016Y-88653984D02*
X129596016Y-86903984D01*
X167000000Y-139750000D02*
X167000000Y-135250000D01*
X137557968Y-93807968D02*
X136500000Y-92750000D01*
D50*
X110500000Y-64750000D02*
X110500000Y-63050000D01*
D52*
X145250000Y-101801199D02*
X143301199Y-101801199D01*
D51*
X126000000Y-73500000D02*
X126500000Y-73000000D01*
X124300000Y-73500000D02*
X126000000Y-73500000D01*
X157000000Y-142000000D02*
X157500000Y-142500000D01*
D50*
X96449998Y-78800002D02*
X110500000Y-64750000D01*
D51*
X114000000Y-67500000D02*
X114000000Y-69000000D01*
D50*
X96449998Y-120004700D02*
X96449998Y-78800002D01*
D51*
X118163015Y-87256659D02*
X117778015Y-87641657D01*
X112053015Y-99416659D02*
X111528015Y-98891659D01*
X130430000Y-128451072D02*
X131870587Y-129891658D01*
X113218015Y-99416658D02*
X112053015Y-99416659D01*
X106500000Y-93800000D02*
X108300000Y-93800000D01*
X108300000Y-96200000D02*
X108500000Y-96000000D01*
D52*
X144590515Y-131840515D02*
X143750000Y-131000000D01*
D51*
X122500000Y-65000000D02*
X123000000Y-65500000D01*
X163750000Y-86500000D02*
X164000000Y-86750000D01*
X130063015Y-106563015D02*
X129500000Y-106000000D01*
X137942032Y-93807968D02*
X137557968Y-93807968D01*
X181553600Y-93303600D02*
X181000000Y-92750000D01*
X113083015Y-78591657D02*
X112078016Y-78591659D01*
X134240001Y-128075000D02*
X134240000Y-129853644D01*
%TO.N,/power-SMD/Vin-SMD+*%
X113500000Y-61625000D02*
X113875000Y-61625000D01*
X121725000Y-66000000D02*
X121725000Y-66390000D01*
D52*
X113500000Y-61625000D02*
X113500000Y-63875000D01*
D51*
X120199520Y-67300480D02*
X120000000Y-67500000D01*
X121725000Y-65500000D02*
X121725000Y-66000000D01*
X121725000Y-66390000D02*
X120814520Y-67300480D01*
X118775000Y-64500000D02*
X114125000Y-64500000D01*
X114125000Y-64500000D02*
X114000000Y-64375000D01*
D53*
X113500000Y-63875000D02*
X114000000Y-64375000D01*
D51*
X120814520Y-67300480D02*
X120199520Y-67300480D01*
D52*
X115000000Y-56985000D02*
X114290000Y-56275000D01*
X113875000Y-61625000D02*
X115000000Y-60500000D01*
D51*
X113125000Y-64375000D02*
X114000000Y-64375000D01*
D52*
X115000000Y-60500000D02*
X115000000Y-56985000D01*
D53*
%TO.N,Net-(C2-Pad1)*%
X116500000Y-65250000D02*
X116250000Y-65500000D01*
X117250000Y-65250000D02*
X116500000Y-65250000D01*
D51*
X116250000Y-65500000D02*
X116250000Y-65887500D01*
X117500000Y-65000000D02*
X117250000Y-65250000D01*
X118775000Y-65000000D02*
X117500000Y-65000000D01*
D52*
%TO.N,+5VA*%
X141493015Y-119930515D02*
X142500000Y-120937500D01*
X127250000Y-57312500D02*
X127250000Y-59000000D01*
D51*
X153250000Y-140300000D02*
X153250000Y-140750000D01*
X108250001Y-73749998D02*
X108250001Y-72000000D01*
X153250000Y-140750000D02*
X152000000Y-142000000D01*
D52*
X121278015Y-119141657D02*
X124465514Y-119141657D01*
D51*
X122423015Y-86141659D02*
X121973015Y-85691658D01*
D52*
X141465515Y-133141658D02*
X141465515Y-131534485D01*
X121973015Y-86836657D02*
X122778015Y-87641657D01*
D51*
X122937500Y-64500000D02*
X123937500Y-63500000D01*
X141493016Y-117291657D02*
X141493016Y-118106657D01*
X135510001Y-126873641D02*
X134528015Y-125891659D01*
X121253015Y-104366656D02*
X122028016Y-105141656D01*
X124500000Y-69012500D02*
X124487500Y-69000000D01*
X184250000Y-56925000D02*
X184250000Y-67085000D01*
X135510001Y-128074998D02*
X135510001Y-126873641D01*
X136780000Y-128074998D02*
X136780000Y-127698926D01*
X178428600Y-93821400D02*
X179250000Y-93000000D01*
X135510001Y-128074998D02*
X136780000Y-128074998D01*
X139320000Y-132014645D02*
X136780000Y-129474645D01*
D52*
X121973015Y-85691658D02*
X121973015Y-86836657D01*
X142500000Y-120937500D02*
X144187500Y-120937500D01*
D51*
X108250001Y-72000000D02*
X109250000Y-71000000D01*
D52*
X162500000Y-91500000D02*
X163250000Y-92250000D01*
D51*
X115687500Y-74250000D02*
X113250000Y-74250000D01*
D52*
X141465515Y-131534485D02*
X142000000Y-131000000D01*
D51*
X123937500Y-68137500D02*
X124300000Y-68500000D01*
X145250000Y-109421199D02*
X143828801Y-108000000D01*
D52*
X120743014Y-117291659D02*
X120743014Y-118606657D01*
D51*
X113250000Y-74250000D02*
X112750000Y-74750000D01*
X141643016Y-117141657D02*
X141493016Y-117291657D01*
D52*
X139320000Y-133025000D02*
X141348856Y-133025000D01*
D51*
X121725000Y-64500000D02*
X122937500Y-64500000D01*
D52*
X120743014Y-118606657D02*
X121278015Y-119141657D01*
X141493015Y-117291659D02*
X141493015Y-119930515D01*
X124215515Y-86141658D02*
X122423015Y-86141659D01*
D51*
X143828801Y-108000000D02*
X143250000Y-108000000D01*
X139320000Y-133025000D02*
X139320000Y-132014645D01*
X124050000Y-63612500D02*
X123937500Y-63500000D01*
X141348856Y-133025000D02*
X141715515Y-133391658D01*
X123937500Y-63500000D02*
X123937500Y-68137500D01*
X120838015Y-104366658D02*
X121253015Y-104366656D01*
D52*
X144187500Y-120937500D02*
X145000000Y-121750000D01*
D51*
X136780000Y-129474645D02*
X136780000Y-128074998D01*
X178428600Y-94999999D02*
X178428600Y-93821400D01*
X162500000Y-90800000D02*
X162500000Y-91500000D01*
%TO.N,Net-(C3-Pad2)*%
X121375000Y-69012500D02*
X121387500Y-69000000D01*
X118812500Y-71812499D02*
X118750000Y-71749999D01*
X120887500Y-71300000D02*
X121187500Y-71000000D01*
X121200000Y-73500000D02*
X121200000Y-71012500D01*
X118812500Y-74250000D02*
X118812500Y-71812499D01*
X121200000Y-71012500D02*
X121187500Y-71000000D01*
X118750000Y-71300000D02*
X120887500Y-71300000D01*
X121187500Y-68512500D02*
X121200000Y-68500000D01*
X121187500Y-71000000D02*
X121187500Y-68512500D01*
D52*
%TO.N,Net-(D1-Pad2)*%
X113500000Y-59875000D02*
X110575000Y-59875000D01*
D51*
X110575000Y-59875000D02*
X110500000Y-59950000D01*
X109210000Y-56275000D02*
X109210000Y-58660000D01*
D54*
X109210000Y-58660000D02*
X110500000Y-59950000D01*
D51*
%TO.N,/power-SMD/inductor1*%
X118550000Y-63750000D02*
X118775000Y-63525000D01*
X118750000Y-64000000D02*
X118500000Y-63750000D01*
X118775000Y-64000000D02*
X118750000Y-64000000D01*
X118775000Y-60700646D02*
X117947278Y-59872924D01*
X118775000Y-63525000D02*
X118775000Y-60700646D01*
X118500000Y-63750000D02*
X118550000Y-63750000D01*
D52*
%TO.N,Net-(Q1-Pad2)*%
X111750000Y-47125000D02*
X105125000Y-47125000D01*
X96750000Y-49500000D02*
X102750000Y-49500000D01*
D51*
X111750000Y-56275000D02*
X111750000Y-47125000D01*
D52*
X105125000Y-47125000D02*
X102750000Y-49500000D01*
D51*
%TO.N,/esp32-SMD/IO15*%
X132446000Y-53804000D02*
X133804000Y-53804000D01*
X151131440Y-53804000D02*
X133804000Y-53804000D01*
X131000000Y-90900746D02*
X127458714Y-90900746D01*
X156685440Y-48250000D02*
X151131440Y-53804000D01*
X127458714Y-90900746D02*
X127403984Y-90846016D01*
X131000000Y-90900746D02*
X131000000Y-55250000D01*
X168439489Y-49810511D02*
X158245951Y-49810511D01*
X168500000Y-49750000D02*
X168439489Y-49810511D01*
X158245951Y-49810511D02*
X156685440Y-48250000D01*
X125883705Y-92366295D02*
X127403984Y-90846016D01*
X131000000Y-55250000D02*
X132446000Y-53804000D01*
%TO.N,/7-segment-display-SMD/_a*%
X136750000Y-139550000D02*
X137724520Y-140524520D01*
X136625000Y-139299997D02*
X137021007Y-139299997D01*
X138774520Y-140524520D02*
X140500000Y-142250000D01*
X140500000Y-142250000D02*
X140500000Y-144300000D01*
X140500000Y-144300000D02*
X141740000Y-145540000D01*
X137724520Y-140524520D02*
X138774520Y-140524520D01*
D55*
%TO.N,/7-segment-display-SMD/a*%
X135510001Y-133025000D02*
X135510001Y-134185000D01*
X135510001Y-134185000D02*
X136625000Y-135300000D01*
D51*
X135375000Y-133160000D02*
X135510001Y-133025000D01*
D55*
X136625000Y-135300000D02*
X136625000Y-136199997D01*
D51*
%TO.N,/7-segment-display-SMD/_b*%
X134125000Y-139312737D02*
X134493747Y-139312737D01*
X137885489Y-142704479D02*
X137885489Y-144365489D01*
X134493747Y-139312737D02*
X137885489Y-142704479D01*
X137885489Y-144365489D02*
X139060000Y-145540000D01*
D55*
%TO.N,/7-segment-display-SMD/b*%
X134240000Y-133024998D02*
X134240000Y-136097739D01*
X134240000Y-136097739D02*
X134125000Y-136212737D01*
D51*
%TO.N,/7-segment-display-SMD/_c*%
X131625000Y-139349998D02*
X132181986Y-139349998D01*
X135345489Y-144365489D02*
X136520000Y-145540000D01*
X135345489Y-142513501D02*
X135345489Y-144365489D01*
X132181986Y-139349998D02*
X135345489Y-142513501D01*
D55*
%TO.N,/7-segment-display-SMD/c*%
X132969999Y-133025000D02*
X132969999Y-134454999D01*
X132969999Y-134454999D02*
X131625000Y-135799998D01*
X131625000Y-135799998D02*
X131625000Y-136250000D01*
D51*
%TO.N,/7-segment-display-SMD/_d*%
X131524520Y-140524520D02*
X130224520Y-140524520D01*
X132900000Y-144320000D02*
X132900000Y-141900000D01*
X134120000Y-145540000D02*
X132900000Y-144320000D01*
X129125000Y-139349998D02*
X129451008Y-139349998D01*
X132900000Y-141900000D02*
X131524520Y-140524520D01*
X130224520Y-140524520D02*
X129250000Y-139550000D01*
D55*
%TO.N,/7-segment-display-SMD/d*%
X130625000Y-135299998D02*
X130075000Y-135300000D01*
X131700000Y-133025000D02*
X131700000Y-134224999D01*
X131700000Y-134224999D02*
X130625000Y-135299998D01*
X130075000Y-135300000D02*
X129125000Y-136250000D01*
D51*
%TO.N,/7-segment-display-SMD/_e*%
X129900000Y-141600000D02*
X130300000Y-142000000D01*
X126750000Y-139550000D02*
X128800000Y-141600000D01*
X130300000Y-142000000D02*
X130300000Y-144260000D01*
X130300000Y-144260000D02*
X131580000Y-145540000D01*
X128800000Y-141600000D02*
X129900000Y-141600000D01*
X126624999Y-139349998D02*
X126911008Y-139349998D01*
D55*
%TO.N,/7-segment-display-SMD/e*%
X130430000Y-133025000D02*
X129850000Y-133025000D01*
X129850000Y-133025000D02*
X126624999Y-136250000D01*
D51*
%TO.N,/7-segment-display-SMD/_f*%
X143699520Y-146686198D02*
X143135718Y-147250000D01*
X141625000Y-139299998D02*
X143699520Y-141374518D01*
X130610000Y-147250000D02*
X128900000Y-145540000D01*
X143699520Y-141374518D02*
X143699520Y-146686198D01*
X143135718Y-147250000D02*
X130610000Y-147250000D01*
D55*
%TO.N,/7-segment-display-SMD/f*%
X139693341Y-135150477D02*
X140575480Y-135150479D01*
X138050000Y-133024997D02*
X138050000Y-133507136D01*
X140575480Y-135150479D02*
X141625001Y-136199997D01*
X138050000Y-133507136D02*
X139693341Y-135150477D01*
D51*
%TO.N,/7-segment-display-SMD/_g*%
X143250000Y-146500000D02*
X143250000Y-142000000D01*
X143250000Y-142000000D02*
X142750000Y-141500000D01*
X141200000Y-141500000D02*
X139250000Y-139550000D01*
X131580000Y-143000000D02*
X131580000Y-143780000D01*
X143035489Y-146714511D02*
X143250000Y-146500000D01*
X132800000Y-145000000D02*
X132800000Y-146211988D01*
X133302523Y-146714511D02*
X143035489Y-146714511D01*
X142750000Y-141500000D02*
X141200000Y-141500000D01*
X132800000Y-146211988D02*
X133302523Y-146714511D01*
X131580000Y-143780000D02*
X132800000Y-145000000D01*
D55*
%TO.N,/7-segment-display-SMD/g*%
X139125001Y-136199997D02*
X139024999Y-136199997D01*
X136780000Y-133954998D02*
X136780000Y-133025000D01*
X139024999Y-136199997D02*
X136780000Y-133954998D01*
D51*
%TO.N,/7-segment-display-SMD/_dp*%
X125028029Y-140324518D02*
X125485528Y-140324518D01*
X127840000Y-141800000D02*
X129040000Y-143000000D01*
X125485528Y-140324518D02*
X126961010Y-141800000D01*
X126961010Y-141800000D02*
X127840000Y-141800000D01*
X124051832Y-139348321D02*
X125028029Y-140324518D01*
%TO.N,/7-segment-display-SMD/_dpBoard*%
X124051832Y-136248321D02*
X123001679Y-136248321D01*
X123001679Y-136248321D02*
X121500000Y-137750000D01*
D52*
%TO.N,Net-(SW1-Pad2)*%
X90750000Y-44725000D02*
X96525000Y-44725000D01*
D51*
X96525000Y-44725000D02*
X96750000Y-44500000D01*
D52*
X96750000Y-44500000D02*
X102750000Y-44500000D01*
D51*
%TO.N,/7-segment-display-SMD/_hundreds*%
X140569567Y-106642139D02*
X140713714Y-106786286D01*
X140713714Y-106786286D02*
X140868495Y-106941067D01*
X132375000Y-105125000D02*
X132500000Y-105250000D01*
X113500000Y-104084674D02*
X113218015Y-104366659D01*
X140225402Y-106500000D02*
X140500000Y-106500000D01*
X136333515Y-105125000D02*
X136958515Y-105750000D01*
X140868495Y-106941067D02*
X140868495Y-116646179D01*
X113218015Y-104366659D02*
X113218015Y-103990587D01*
X113218015Y-103990587D02*
X114208602Y-103000000D01*
X140868495Y-116646179D02*
X140223015Y-117291659D01*
X140500000Y-106500000D02*
X140713714Y-106713714D01*
X114208602Y-103000000D02*
X130250000Y-103000000D01*
X132375000Y-105125000D02*
X136333515Y-105125000D01*
X113500000Y-102750000D02*
X113500000Y-104084674D01*
X139987701Y-106262299D02*
X140225402Y-106500000D01*
X140713714Y-106713714D02*
X140713714Y-106786286D01*
X130250000Y-103000000D02*
X132375000Y-105125000D01*
X106500000Y-104300000D02*
X109300000Y-104300000D01*
X109300000Y-104300000D02*
X110250000Y-105250000D01*
%TO.N,/7-segment-display-SMD/_tens*%
X128706585Y-98237701D02*
X126194286Y-100750000D01*
X114488015Y-99011985D02*
X115750000Y-97750000D01*
X124502514Y-100750000D02*
X123636345Y-101616169D01*
X140250016Y-105500000D02*
X139750000Y-105500000D01*
X139225402Y-105500000D02*
X138487701Y-104762299D01*
X129262299Y-98237701D02*
X128706585Y-98237701D01*
X114250000Y-88250000D02*
X109300000Y-88250000D01*
X126194286Y-100750000D02*
X124502514Y-100750000D01*
X114488015Y-100988015D02*
X114488015Y-99416659D01*
X123636345Y-101616169D02*
X118865283Y-101616169D01*
X109300000Y-88250000D02*
X106500000Y-85450000D01*
X114488015Y-100988015D02*
X114500000Y-101000000D01*
X141493015Y-107991659D02*
X141493015Y-106857297D01*
X117199011Y-101550989D02*
X117000000Y-101750000D01*
X139750000Y-105500000D02*
X139225402Y-105500000D01*
X141493015Y-106857297D02*
X140712212Y-106076494D01*
X114488015Y-99416659D02*
X114488015Y-99792731D01*
X140712212Y-106076494D02*
X140712212Y-105962196D01*
X141500000Y-107984674D02*
X141493015Y-107991659D01*
X114500000Y-101000000D02*
X114500000Y-101250000D01*
X140712212Y-105962196D02*
X140250016Y-105500000D01*
X114488015Y-99416659D02*
X114488015Y-99011985D01*
X118800103Y-101550989D02*
X117199011Y-101550989D01*
X118865283Y-101616169D02*
X118800103Y-101550989D01*
%TO.N,/7-segment-display-SMD/_ones*%
X117028015Y-99416659D02*
X117028015Y-99792731D01*
X119473015Y-117291657D02*
X119473015Y-116421159D01*
X115750000Y-101500000D02*
X115250000Y-101500000D01*
X116350960Y-102500000D02*
X116300480Y-102550480D01*
X115250000Y-101500000D02*
X115250000Y-102500000D01*
X116300480Y-102550480D02*
X116449520Y-102550480D01*
X116500000Y-100750000D02*
X115750000Y-101500000D01*
X119473015Y-116421159D02*
X120028016Y-115866158D01*
X129250000Y-102500000D02*
X116350960Y-102500000D01*
X117028015Y-99416659D02*
X116500000Y-99944674D01*
X116500000Y-99944674D02*
X116500000Y-100750000D01*
X115250000Y-102500000D02*
X115300480Y-102550480D01*
X117000000Y-99444674D02*
X117028015Y-99416659D01*
X115300480Y-102550480D02*
X116300480Y-102550480D01*
X132037689Y-99712311D02*
X129250000Y-102500000D01*
%TO.N,/7-segment-display-SMD/_thousands*%
X119778015Y-100891658D02*
X119778015Y-99626658D01*
X120743015Y-107991658D02*
X120743014Y-106176659D01*
X119778015Y-99626658D02*
X119568014Y-99416658D01*
X119568015Y-99416659D02*
X119568015Y-99792731D01*
X123799151Y-98200849D02*
X125250000Y-96750000D01*
X121184567Y-100716179D02*
X123699897Y-98200849D01*
X123699897Y-98200849D02*
X123799151Y-98200849D01*
X120743014Y-106176659D02*
X120778016Y-106141657D01*
X125250000Y-96116654D02*
X123691673Y-94558327D01*
X120491463Y-100716179D02*
X121184567Y-100716179D01*
X119568015Y-99792731D02*
X120491463Y-100716179D01*
X125250000Y-96750000D02*
X125250000Y-96116654D01*
%TO.N,/7-segment-display-SMD/BCD_in4*%
X123128016Y-117291657D02*
X123028015Y-117391657D01*
X129802628Y-111141658D02*
X127802629Y-109141658D01*
X132603015Y-107991657D02*
X132603015Y-108417730D01*
X132717489Y-90452199D02*
X126459844Y-96709844D01*
X130063016Y-117291659D02*
X123128016Y-117291657D01*
X112985943Y-113141657D02*
X113011442Y-113167159D01*
X132278016Y-110391658D02*
X131528016Y-111141658D01*
X132717489Y-70130511D02*
X132717489Y-90452199D01*
X115576943Y-112141656D02*
X123028014Y-112141659D01*
X111853016Y-108417730D02*
X115576943Y-112141656D01*
X133804000Y-69044000D02*
X132717489Y-70130511D01*
X111528015Y-113141658D02*
X112985943Y-113141657D01*
X111750000Y-105500000D02*
X111750000Y-107888643D01*
X132155692Y-110269335D02*
X132278016Y-110391658D01*
X113011442Y-113167159D02*
X123028014Y-113167159D01*
X145050511Y-57797489D02*
X171824559Y-57797489D01*
X133804000Y-69044000D02*
X145050511Y-57797489D01*
X127802629Y-109141658D02*
X123028014Y-109141658D01*
X132155692Y-108438982D02*
X132155692Y-110269335D01*
X111853016Y-107991657D02*
X111853016Y-107565587D01*
X109313014Y-117291657D02*
X109313015Y-115356658D01*
X109313015Y-115356658D02*
X111528015Y-113141658D01*
X131528016Y-111141658D02*
X129802628Y-111141658D01*
X132603015Y-107991657D02*
X132155692Y-108438982D01*
X171824559Y-57797489D02*
X174515224Y-55106824D01*
X111750000Y-107888643D02*
X111853016Y-107991659D01*
X111853016Y-107991657D02*
X111853016Y-108417730D01*
%TO.N,/7-segment-display-SMD/BCD_in1*%
X116933016Y-116374799D02*
X118028015Y-115279799D01*
X137683015Y-115325586D02*
X135499087Y-113141656D01*
X143187989Y-71584000D02*
X156250000Y-58521989D01*
X137683015Y-117291659D02*
X137683015Y-115325586D01*
X122278015Y-115591179D02*
X122553254Y-115866419D01*
X118028015Y-115279799D02*
X118028015Y-115141656D01*
X135499087Y-113141656D02*
X127528015Y-113141656D01*
X122553255Y-115666899D02*
X122553254Y-115866419D01*
X128082843Y-100917157D02*
X127528014Y-100917157D01*
X140223015Y-109176985D02*
X136258344Y-113141656D01*
X122028016Y-115141657D02*
X122553255Y-115666899D01*
X118028015Y-115141656D02*
X122028016Y-115141657D01*
X140223015Y-107991658D02*
X140223015Y-108417731D01*
X136258344Y-113141656D02*
X135499087Y-113141656D01*
X122828495Y-116141659D02*
X127528015Y-116141657D01*
X119473015Y-107991657D02*
X119473015Y-107565587D01*
X119473015Y-108417730D02*
X120946943Y-109891658D01*
X119473015Y-107991657D02*
X119473015Y-108417730D01*
X140223015Y-107991658D02*
X140223015Y-107565585D01*
X129500000Y-99500000D02*
X128082843Y-100917157D01*
X140223015Y-107991659D02*
X140223015Y-109176985D01*
X120946943Y-109891658D02*
X127528015Y-109891659D01*
X116933016Y-117291659D02*
X116933016Y-116374799D01*
X133804000Y-71584000D02*
X143187989Y-71584000D01*
X122553254Y-115866419D02*
X122828495Y-116141659D01*
%TO.N,/esp32-SMD/IO21*%
X152250000Y-80500000D02*
X143750000Y-89000000D01*
X143750000Y-89000000D02*
X138975020Y-89000000D01*
%TO.N,/7-segment-display-SMD/BCD_in2*%
X157609489Y-83640511D02*
X137750000Y-103500000D01*
X135143016Y-117291657D02*
X135143016Y-116865587D01*
X116933015Y-107991658D02*
X116933015Y-108417731D01*
X137750000Y-103500000D02*
X137750000Y-104500000D01*
X171611460Y-74500000D02*
X174986760Y-77875300D01*
X137683015Y-107991659D02*
X137683015Y-103566985D01*
X114393015Y-116865584D02*
X116591443Y-114667158D01*
X166692000Y-74500000D02*
X171611460Y-74500000D01*
X157609489Y-67590511D02*
X157609489Y-83640511D01*
X135143015Y-117717730D02*
X135143016Y-117291657D01*
X158696000Y-66504000D02*
X157609489Y-67590511D01*
X158696000Y-66504000D02*
X166692000Y-74500000D01*
X137683015Y-108417731D02*
X133709087Y-112391659D01*
X137683015Y-107991657D02*
X137683015Y-108417731D01*
X135143016Y-116865587D02*
X132169087Y-113891658D01*
X133709087Y-112391659D02*
X126028015Y-112391658D01*
X137683015Y-103566985D02*
X137750000Y-103500000D01*
X132169087Y-113891658D02*
X126028015Y-113891657D01*
X116591443Y-114667158D02*
X126028015Y-114667158D01*
X116933015Y-108417731D02*
X119156944Y-110641657D01*
X114393015Y-117291659D02*
X114393015Y-116865584D01*
X119156944Y-110641657D02*
X126028015Y-110641657D01*
X116933015Y-107991658D02*
X116933016Y-107565585D01*
%TO.N,/7-segment-display-SMD/BCD_in3*%
X135143015Y-107991659D02*
X135143015Y-108856985D01*
X135143015Y-108856985D02*
X133800000Y-110200000D01*
X132603015Y-116374796D02*
X131477535Y-115249317D01*
X125528015Y-111641658D02*
X124528016Y-112641657D01*
X114393015Y-107991658D02*
X114393015Y-108417731D01*
X166178716Y-63964000D02*
X168836172Y-66621456D01*
X133800000Y-111300000D02*
X133458342Y-111641658D01*
X126563995Y-98936005D02*
X153000000Y-72500000D01*
X131477535Y-115249317D02*
X131477535Y-115066563D01*
X126320820Y-98936005D02*
X126563995Y-98936005D01*
X114393015Y-108417731D02*
X117366944Y-111391657D01*
X114393015Y-107991658D02*
X114393015Y-107565585D01*
X111853016Y-117291657D02*
X111853016Y-116865587D01*
X114826943Y-113891657D02*
X124528015Y-113891658D01*
X132603015Y-117717729D02*
X132603015Y-117291657D01*
X130828118Y-114417148D02*
X127302640Y-114417147D01*
X132603015Y-117291657D02*
X132603015Y-116374796D01*
X126328128Y-115391659D02*
X124528016Y-115391659D01*
X117366944Y-111391657D02*
X124528016Y-111391659D01*
X131477535Y-115066563D02*
X130828118Y-114417148D01*
X153000000Y-69660000D02*
X158696000Y-63964000D01*
X135143016Y-107991657D02*
X135143016Y-108417730D01*
X133800000Y-110200000D02*
X133800000Y-111300000D01*
X133458342Y-111641658D02*
X125528015Y-111641658D01*
X153000000Y-72500000D02*
X153000000Y-69660000D01*
X158696000Y-63964000D02*
X166178716Y-63964000D01*
X127302640Y-114417147D02*
X126328128Y-115391659D01*
X111853016Y-116865587D02*
X114826943Y-113891657D01*
%TO.N,/7-segment-display-SMD/clk-7SegmentDisplay*%
X119433016Y-85691659D02*
X119433016Y-80290681D01*
X118808505Y-77517148D02*
X119258027Y-77067626D01*
X152798000Y-62750000D02*
X153500000Y-62750000D01*
X119433016Y-80290681D02*
X118808505Y-79666170D01*
X123817626Y-77067626D02*
X128500000Y-81750000D01*
X119258027Y-77067626D02*
X123817626Y-77067626D01*
X133804000Y-81744000D02*
X152798000Y-62750000D01*
X118808505Y-79666170D02*
X118808505Y-77517148D01*
%TO.N,/esp32-SMD/IO23*%
X133804000Y-84284000D02*
X138216000Y-84284000D01*
X138216000Y-84284000D02*
X149500000Y-73000000D01*
%TO.N,/esp32-SMD/IO14*%
X134229721Y-97520279D02*
X134229721Y-92520279D01*
X158696000Y-58884000D02*
X166588800Y-58884000D01*
X150500000Y-73694287D02*
X150500000Y-67080000D01*
X166588800Y-58884000D02*
X168836172Y-61131372D01*
X135750000Y-96000000D02*
X134229721Y-97520279D01*
X150500000Y-67080000D02*
X158696000Y-58884000D01*
X134229721Y-92520279D02*
X136500000Y-90250000D01*
X136347144Y-87847144D02*
X150500000Y-73694287D01*
D55*
%TO.N,+3.3VA*%
X129790000Y-44710000D02*
X129790000Y-43750000D01*
X129790000Y-43750000D02*
X119630000Y-43750000D01*
X133804000Y-48724000D02*
X129790000Y-44710000D01*
D51*
%TO.N,+a*%
X207252500Y-47557500D02*
X207252500Y-54282500D01*
X217880000Y-55600000D02*
X222850000Y-55600000D01*
X224167500Y-54282500D02*
X225872500Y-54282500D01*
X222850000Y-55600000D02*
X224167500Y-54282500D01*
X210000000Y-44810000D02*
X207252500Y-47557500D01*
X216562500Y-54282500D02*
X217880000Y-55600000D01*
%TO.N,+thousands*%
X213905489Y-44323501D02*
X213905489Y-45744511D01*
X210000000Y-47350000D02*
X212150000Y-49500000D01*
X211894006Y-46144006D02*
X210688012Y-47350000D01*
X215043021Y-43185969D02*
X213905489Y-44323501D01*
X233350000Y-49600000D02*
X226935969Y-43185969D01*
X233350000Y-61350000D02*
X233350000Y-49600000D01*
X231600000Y-63100000D02*
X233350000Y-61350000D01*
X216010000Y-49500000D02*
X220792500Y-54282500D01*
X210688012Y-47350000D02*
X210000000Y-47350000D01*
X226935969Y-43185969D02*
X215043021Y-43185969D01*
X211894006Y-46144006D02*
X212053501Y-45984511D01*
X212150000Y-49500000D02*
X216010000Y-49500000D01*
X213905489Y-45744511D02*
X213505994Y-46144006D01*
X213505994Y-46144006D02*
X211894006Y-46144006D01*
%TO.N,+b*%
X211365489Y-45984511D02*
X209704479Y-45984511D01*
X224595000Y-58100000D02*
X225872500Y-56822500D01*
X208377011Y-55697989D02*
X207252500Y-56822500D01*
X208377011Y-47311979D02*
X208377011Y-55697989D01*
X220350000Y-58100000D02*
X224595000Y-58100000D01*
X219072500Y-56822500D02*
X220350000Y-58100000D01*
X209704479Y-45984511D02*
X208377011Y-47311979D01*
X212540000Y-44810000D02*
X211365489Y-45984511D01*
X216562500Y-56822500D02*
X219072500Y-56822500D01*
%TO.N,+hundreds*%
X215400000Y-51350000D02*
X211600000Y-51350000D01*
X215450000Y-51400000D02*
X215400000Y-51350000D01*
X211600000Y-51350000D02*
X211482500Y-51467500D01*
X211482500Y-51467500D02*
X211482500Y-54282500D01*
%TO.N,+c*%
X216562500Y-59362500D02*
X213072800Y-59362500D01*
X213072800Y-59362500D02*
X211948289Y-60487011D01*
X224862350Y-60372650D02*
X221372650Y-60372650D01*
X221258289Y-60487011D02*
X220012729Y-60487011D01*
X221372650Y-60372650D02*
X221258289Y-60487011D01*
X225872500Y-59362500D02*
X224862350Y-60372650D01*
X220012729Y-60487011D02*
X218888218Y-59362500D01*
X211948289Y-60487011D02*
X208377011Y-60487011D01*
X218888218Y-59362500D02*
X216562500Y-59362500D01*
X208377011Y-60487011D02*
X207252500Y-59362500D01*
%TO.N,+tens*%
X215080000Y-47350000D02*
X216254511Y-46175489D01*
X216254511Y-46175489D02*
X223429771Y-46175489D01*
X224144006Y-48105994D02*
X230102500Y-54064488D01*
X230102500Y-54064488D02*
X230102500Y-54282500D01*
X223429771Y-46175489D02*
X224050000Y-46795718D01*
X224050000Y-46795718D02*
X224050000Y-48011988D01*
X224050000Y-48011988D02*
X224144006Y-48105994D01*
%TO.N,+d*%
X212607011Y-65567011D02*
X211482500Y-64442500D01*
X219667989Y-65567011D02*
X212607011Y-65567011D01*
X230102500Y-64442500D02*
X228528469Y-66016531D01*
X222366531Y-66016531D02*
X220792500Y-64442500D01*
X220792500Y-64442500D02*
X219667989Y-65567011D01*
X228528469Y-66016531D02*
X222366531Y-66016531D01*
%TO.N,+ones*%
X202172500Y-54282500D02*
X206127989Y-58237989D01*
X206127989Y-63317989D02*
X207252500Y-64442500D01*
X206127989Y-58237989D02*
X206127989Y-63317989D01*
%TO.N,+e*%
X226437989Y-65567011D02*
X224457011Y-65567011D01*
X220160000Y-44810000D02*
X221334511Y-43635489D01*
X224457011Y-65567011D02*
X220792500Y-61902500D01*
X231676531Y-49585521D02*
X231676531Y-60328469D01*
X230102500Y-61902500D02*
X226437989Y-65567011D01*
X219667989Y-60777989D02*
X220792500Y-61902500D01*
X211482500Y-61902500D02*
X212607011Y-60777989D01*
X212607011Y-60777989D02*
X219667989Y-60777989D01*
X231676531Y-60328469D02*
X230102500Y-61902500D01*
X225726499Y-43635489D02*
X231676531Y-49585521D01*
X221334511Y-43635489D02*
X225726499Y-43635489D01*
%TO.N,+dp*%
X208377011Y-63027011D02*
X207252500Y-61902500D01*
X216562500Y-61902500D02*
X215437989Y-63027011D01*
X215437989Y-63027011D02*
X208377011Y-63027011D01*
%TO.N,+f*%
X224065489Y-46175489D02*
X226425489Y-46175489D01*
X231227011Y-55697989D02*
X230102500Y-56822500D01*
X226425489Y-46175489D02*
X231227011Y-50977011D01*
X231227011Y-50977011D02*
X231227011Y-55697989D01*
X216907011Y-55407011D02*
X212897989Y-55407011D01*
X220792500Y-56822500D02*
X220070000Y-56100000D01*
X220070000Y-56100000D02*
X217600000Y-56100000D01*
X222700000Y-44810000D02*
X224065489Y-46175489D01*
X217600000Y-56100000D02*
X216907011Y-55407011D01*
X230102500Y-56822500D02*
X228130000Y-54850000D01*
X220820000Y-56850000D02*
X220792500Y-56822500D01*
X212897989Y-55407011D02*
X211482500Y-56822500D01*
X228130000Y-54850000D02*
X228100000Y-54850000D01*
X222850000Y-56850000D02*
X220820000Y-56850000D01*
%TO.N,+g*%
X220792500Y-59362500D02*
X224282200Y-59362500D01*
X226997011Y-51647011D02*
X226997011Y-56257011D01*
X212607011Y-58237989D02*
X219667989Y-58237989D01*
X228977989Y-58237989D02*
X230102500Y-59362500D01*
X222700000Y-47350000D02*
X226997011Y-51647011D01*
X226997011Y-56257011D02*
X230102500Y-59362500D01*
X219667989Y-58237989D02*
X220792500Y-59362500D01*
X211482500Y-59362500D02*
X212607011Y-58237989D01*
X224282200Y-59362500D02*
X225406711Y-58237989D01*
X225406711Y-58237989D02*
X228977989Y-58237989D01*
%TO.N,/7-segment-display-SMD/thousands*%
X121473015Y-95116658D02*
X123106357Y-96750000D01*
X123106357Y-96750000D02*
X124000000Y-96750000D01*
%TO.N,/7-segment-display-SMD/hundreds*%
X118249989Y-97842159D02*
X117663015Y-97255185D01*
X117663015Y-97255185D02*
X117663015Y-95116658D01*
%TO.N,/7-segment-display-SMD/tens*%
X122752527Y-105569603D02*
X121567454Y-106754676D01*
X118933015Y-96809966D02*
X118760258Y-96982723D01*
X122752527Y-104502527D02*
X122752527Y-105569603D01*
X122250000Y-104000000D02*
X122752527Y-104502527D01*
X118933015Y-95116658D02*
X118933015Y-96809966D01*
%TO.N,/7-segment-display-SMD/ones*%
X120302995Y-95016678D02*
X120203015Y-95116658D01*
X120302995Y-93500000D02*
X120302995Y-95016678D01*
%TO.N,/7-segment-display-SMD/BCD_out1*%
X118203015Y-108663132D02*
X118203015Y-107991657D01*
X138953015Y-120421985D02*
X138375001Y-121000000D01*
X118203015Y-117717729D02*
X118203015Y-117291657D01*
X138778015Y-117116658D02*
X138953014Y-117291657D01*
X138953015Y-108663133D02*
X137501252Y-110114896D01*
X121485284Y-120999997D02*
X118203015Y-117717729D01*
X119228016Y-109688132D02*
X118203015Y-108663132D01*
X138953014Y-107991657D02*
X138953015Y-108663133D01*
X121875001Y-121000000D02*
X121485284Y-120999997D01*
X118203015Y-116278078D02*
X118614935Y-115866159D01*
X131700000Y-121074997D02*
X131625000Y-120999997D01*
X138778015Y-115391659D02*
X138778015Y-117116658D01*
X118203015Y-117291657D02*
X118203015Y-116278078D01*
X138953014Y-117291657D02*
X138953015Y-120421985D01*
X131700000Y-128075000D02*
X131700000Y-121074997D01*
%TO.N,/7-segment-display-SMD/BCD_out2*%
X121694324Y-122500000D02*
X118585983Y-119391659D01*
X121875001Y-122499999D02*
X121694324Y-122500000D01*
X139320000Y-124920384D02*
X136899615Y-122499999D01*
X116278015Y-119391659D02*
X115663014Y-118776659D01*
X115663015Y-116620183D02*
X115663014Y-117291657D01*
X136278015Y-117156659D02*
X136413016Y-117291659D01*
X115663015Y-108526657D02*
X116778015Y-109641657D01*
X135375000Y-122294674D02*
X135375000Y-122499999D01*
X136413016Y-121256657D02*
X135375000Y-122294674D01*
X118585983Y-119391659D02*
X116278015Y-119391659D01*
X116834778Y-115448420D02*
X115663015Y-116620183D01*
X139320000Y-128074998D02*
X139320000Y-124920384D01*
X136413016Y-108663132D02*
X134981252Y-110094896D01*
X136413016Y-121256657D02*
X136413016Y-117291659D01*
X136278015Y-115391659D02*
X136278015Y-117156659D01*
X136899615Y-122499999D02*
X135375000Y-122499999D01*
X115663014Y-118776659D02*
X115663014Y-117291657D01*
X136413016Y-107991658D02*
X136413016Y-108663132D01*
X115663015Y-107991656D02*
X115663015Y-108526657D01*
%TO.N,/7-segment-display-SMD/BCD_out3*%
X113123015Y-117291657D02*
X113123015Y-116620184D01*
X133873015Y-107991659D02*
X133350480Y-108514194D01*
X133873015Y-116620185D02*
X133873015Y-117291658D01*
X114189778Y-109729894D02*
X113123015Y-108663132D01*
X133875000Y-118363211D02*
X133875000Y-123750000D01*
X132711252Y-115458422D02*
X133873015Y-116620185D01*
X113123015Y-116620184D02*
X114064778Y-115678421D01*
X133873015Y-107991658D02*
X133873014Y-108663132D01*
X133350480Y-108514194D02*
X133350480Y-109849520D01*
X138050000Y-128075000D02*
X138050000Y-127698928D01*
X133873015Y-117291658D02*
X133873015Y-122349870D01*
X113123015Y-108663132D02*
X113123015Y-107991657D01*
X118136357Y-123749999D02*
X113123015Y-118736658D01*
X133350480Y-109849520D02*
X133000000Y-110200000D01*
X113123015Y-118736658D02*
X113123015Y-117291657D01*
X138050000Y-127698928D02*
X134101072Y-123750000D01*
X121625000Y-123750000D02*
X118136357Y-123749999D01*
X134101072Y-123750000D02*
X133875000Y-123750000D01*
X133873015Y-107991658D02*
X133873014Y-108663132D01*
%TO.N,/7-segment-display-SMD/BCD_out4*%
X132969999Y-128074998D02*
X132970000Y-125095000D01*
X132970000Y-125095000D02*
X132875000Y-124999999D01*
X131028016Y-115891657D02*
X130528015Y-115391659D01*
X110583015Y-117717728D02*
X117865284Y-124999999D01*
X131333015Y-116196659D02*
X131028016Y-115891657D01*
X132969999Y-128074998D02*
X132970000Y-128451070D01*
X110528016Y-109891658D02*
X110528016Y-108046658D01*
X132875000Y-124999999D02*
X132875000Y-119259714D01*
X131333015Y-110086659D02*
X131278015Y-110141657D01*
X117865284Y-124999999D02*
X121625000Y-124999998D01*
X132875000Y-119259714D02*
X131333015Y-117717729D01*
X130528015Y-115391659D02*
X130528015Y-115141657D01*
X110528016Y-108046658D02*
X110583015Y-107991658D01*
X110583015Y-117291658D02*
X110583015Y-117717728D01*
X110583015Y-117291658D02*
X110583015Y-117946658D01*
X131333015Y-117717729D02*
X131333015Y-117291657D01*
X131333015Y-117291657D02*
X131333015Y-116196659D01*
X110583015Y-115446658D02*
X110528016Y-115391659D01*
X131333015Y-107991657D02*
X131333015Y-110086659D01*
X110583015Y-117291658D02*
X110583015Y-115446658D01*
%TO.N,Net-(U4-Pad2)*%
X120203015Y-90166659D02*
X119578495Y-90791178D01*
X119778015Y-89741658D02*
X120203015Y-90166659D01*
X119578495Y-97591178D02*
X118298015Y-98871659D01*
X119578495Y-90791178D02*
X119578495Y-97591178D01*
X120078505Y-86745190D02*
X119778015Y-87045679D01*
X118298015Y-98871659D02*
X118298015Y-99416659D01*
X119778015Y-87045679D02*
X119778015Y-89741658D01*
X120078505Y-79216170D02*
X120703016Y-78591659D01*
X120078505Y-79216170D02*
X120078505Y-86745190D01*
%TO.N,Net-(U4-Pad3)*%
X121327527Y-90021169D02*
X121473015Y-90166656D01*
X121250000Y-93750000D02*
X121193601Y-93750000D01*
X120057526Y-77517146D02*
X121327527Y-77517148D01*
X119433015Y-78591657D02*
X119433016Y-78141657D01*
X119433016Y-78141657D02*
X120057526Y-77517146D01*
X121193601Y-93750000D02*
X120838015Y-94105586D01*
X121473015Y-90166658D02*
X121473015Y-93526985D01*
X120838015Y-94105586D02*
X120838015Y-99416659D01*
X121473015Y-93526985D02*
X121250000Y-93750000D01*
X121327527Y-77517148D02*
X121327527Y-90021169D01*
%TO.N,Net-(U4-Pad4)*%
X117028015Y-97770587D02*
X115758016Y-99040586D01*
X118787527Y-90021170D02*
X118787527Y-84287527D01*
X115758016Y-99040586D02*
X115758016Y-99416658D01*
X118933016Y-90166659D02*
X118933015Y-92200587D01*
X118000000Y-83500000D02*
X118163016Y-83336984D01*
X118787526Y-90021169D02*
X118933016Y-90166659D01*
X117028015Y-94105586D02*
X117028015Y-97770587D01*
X118787527Y-84287527D02*
X118000000Y-83500000D01*
X118933015Y-90166658D02*
X118787527Y-90021170D01*
X118163016Y-83336984D02*
X118163016Y-78591659D01*
X118933015Y-92200587D02*
X117028015Y-94105586D01*
%TO.N,Net-(U4-Pad7)*%
X113863496Y-98306178D02*
X115747536Y-96422137D01*
X112593495Y-101687251D02*
X113863496Y-100417250D01*
X114488015Y-104366659D02*
X114488015Y-104742731D01*
X114488015Y-104742731D02*
X113564567Y-105666179D01*
X113564567Y-105666179D02*
X112871463Y-105666179D01*
X115747536Y-96422137D02*
X115747536Y-94116066D01*
X117663015Y-92200586D02*
X117663016Y-89790585D01*
X116514087Y-88641658D02*
X115778015Y-88641658D01*
X113728505Y-79216170D02*
X114353016Y-78591659D01*
X117663016Y-89790585D02*
X116514087Y-88641658D01*
X113728505Y-86592148D02*
X113728505Y-79216170D01*
X112593495Y-105388211D02*
X112593495Y-101687251D01*
X113863496Y-100417250D02*
X113863496Y-98306178D01*
X112871463Y-105666179D02*
X112593495Y-105388211D01*
X115778015Y-88641658D02*
X113728505Y-86592148D01*
X115747536Y-94116066D02*
X117663015Y-92200586D01*
%TO.N,Net-(U4-Pad10)*%
X115290315Y-87129359D02*
X114353016Y-86192059D01*
X120703016Y-87716657D02*
X120528015Y-87891657D01*
X120703016Y-85691658D02*
X120703016Y-87716657D01*
X114353016Y-86192059D02*
X114353015Y-85691659D01*
%TO.N,/power-SMD/inductor2*%
X121725000Y-63525000D02*
X121725000Y-60718086D01*
X122000000Y-63750000D02*
X121775000Y-63525000D01*
X121725000Y-60718086D02*
X122486227Y-59956859D01*
X121775000Y-63525000D02*
X121725000Y-63525000D01*
X121725000Y-64000000D02*
X121750000Y-64000000D01*
X121750000Y-64000000D02*
X122000000Y-63750000D01*
%TO.N,Net-(J5-Pad2)*%
X116893015Y-85241658D02*
X115293014Y-83641658D01*
X115293014Y-83641658D02*
X115278015Y-83641659D01*
X116893015Y-85691658D02*
X116893015Y-85241658D01*
%TO.N,Net-(J4-Pad2)*%
X164250000Y-83000000D02*
X165250000Y-84000000D01*
X165250000Y-84985000D02*
X165265000Y-85000000D01*
X159980000Y-83000000D02*
X164250000Y-83000000D01*
X158696000Y-84284000D02*
X159980000Y-83000000D01*
X165250000Y-84000000D02*
X165250000Y-84985000D01*
%TO.N,Net-(J4-Pad3)*%
X165500000Y-87700000D02*
X165250000Y-87450000D01*
X162500000Y-87700000D02*
X165500000Y-87700000D01*
X167805000Y-85000000D02*
X165500000Y-87305000D01*
X165500000Y-87305000D02*
X165500000Y-87700000D01*
D54*
%TO.N,Net-(J8-Pad1)*%
X176448800Y-101801199D02*
X177500000Y-100749999D01*
X173190000Y-101801199D02*
X176448800Y-101801199D01*
%TO.N,Net-(J8-Pad2)*%
X176908799Y-104341199D02*
X177499999Y-103749999D01*
X173190000Y-104341199D02*
X176908799Y-104341199D01*
%TO.N,Net-(J8-Pad3)*%
X173190000Y-106881199D02*
X177368800Y-106881199D01*
D51*
X177368800Y-106881199D02*
X177500000Y-106749999D01*
D54*
%TO.N,Net-(J8-Pad4)*%
X177171200Y-109421199D02*
X177500000Y-109749999D01*
X173190000Y-109421199D02*
X177171200Y-109421199D01*
%TO.N,Net-(J8-Pad5)*%
X173190000Y-111961199D02*
X176711200Y-111961199D01*
X176711200Y-111961199D02*
X177500000Y-112750000D01*
D51*
%TO.N,/esp32-SMD/IO5*%
X106500000Y-90700000D02*
X108550000Y-92750000D01*
X135496000Y-66504000D02*
X145500000Y-56500000D01*
X126250000Y-94750000D02*
X126750000Y-94750000D01*
X158463440Y-52500000D02*
X175750000Y-52500000D01*
X108550000Y-92750000D02*
X114250000Y-92750000D01*
X145500000Y-56500000D02*
X154463440Y-56500000D01*
X106500000Y-88550000D02*
X106500000Y-90700000D01*
X154463440Y-56500000D02*
X158463440Y-52500000D01*
X177750000Y-54500000D02*
X177750000Y-57867297D01*
X137237373Y-102487373D02*
X137250000Y-102500000D01*
X126750000Y-94750000D02*
X128250000Y-93250000D01*
X133804000Y-66504000D02*
X135496000Y-66504000D01*
X177750000Y-57867297D02*
X174582586Y-61034711D01*
X175750000Y-52500000D02*
X177750000Y-54500000D01*
%TO.N,/esp32-SMD/IO4*%
X106500000Y-99300000D02*
X106500000Y-101200000D01*
X106550000Y-99250000D02*
X106500000Y-99300000D01*
X108000000Y-99250000D02*
X106550000Y-99250000D01*
%TO.N,Net-(R10-Pad1)*%
X118750000Y-68200000D02*
X118750000Y-66025000D01*
X118750000Y-66025000D02*
X118775000Y-66000000D01*
%TO.N,Net-(R15-Pad2)*%
X155000000Y-143950000D02*
X155000000Y-138950000D01*
X153250000Y-137200000D02*
X157000000Y-137200000D01*
X153950000Y-145000000D02*
X155000000Y-143950000D01*
X155000000Y-138950000D02*
X153250000Y-137200000D01*
%TO.N,/esp32-SMD/button*%
X160166198Y-121711937D02*
X160166198Y-83449520D01*
X160166198Y-83449520D02*
X164063802Y-83449520D01*
X164778501Y-86174511D02*
X165751499Y-86174511D01*
X172558075Y-61873292D02*
X172558075Y-59992405D01*
X177300480Y-55250000D02*
X177300480Y-55028988D01*
X157300000Y-144750000D02*
X167000000Y-144750000D01*
X166439511Y-85486499D02*
X166439511Y-84272738D01*
X177300480Y-55028988D02*
X175271492Y-53000000D01*
X157050000Y-145000000D02*
X164374511Y-137675489D01*
X175271492Y-53000000D02*
X159500000Y-53000000D01*
X173744005Y-63059222D02*
X172558075Y-61873292D01*
X164063802Y-85459812D02*
X164778501Y-86174511D01*
X164374511Y-125920250D02*
X160166198Y-121711937D01*
X159500000Y-53000000D02*
X158696000Y-53804000D01*
X178500000Y-66138055D02*
X175421167Y-63059222D01*
X178500000Y-77225152D02*
X178500000Y-66138055D01*
X170812438Y-79899811D02*
X175825341Y-79899811D01*
X164374511Y-137675489D02*
X164374511Y-125920250D01*
X157050000Y-145000000D02*
X157300000Y-144750000D01*
X175421167Y-63059222D02*
X173744005Y-63059222D01*
X172558075Y-59992405D02*
X177300480Y-55250000D01*
X165751499Y-86174511D02*
X166439511Y-85486499D01*
X175825341Y-79899811D02*
X178500000Y-77225152D01*
X166439511Y-84272738D02*
X170812438Y-79899811D01*
X164063802Y-83449520D02*
X164063802Y-85459812D01*
%TD*%
%TA.AperFunction,Conductor*%
%TO.N,/power-SMD/Vin-SMD+*%
G36*
X117692121Y-63270002D02*
G01*
X117738614Y-63323658D01*
X117750000Y-63376000D01*
X117750000Y-64240500D01*
X117729998Y-64308621D01*
X117676342Y-64355114D01*
X117624000Y-64366500D01*
X117578763Y-64366500D01*
X117567579Y-64365973D01*
X117560091Y-64364299D01*
X117552168Y-64364548D01*
X117492033Y-64366438D01*
X117488075Y-64366500D01*
X117460144Y-64366500D01*
X117456229Y-64366995D01*
X117456225Y-64366995D01*
X117456167Y-64367003D01*
X117456138Y-64367006D01*
X117444296Y-64367939D01*
X117400110Y-64369327D01*
X117382744Y-64374372D01*
X117380658Y-64374978D01*
X117361306Y-64378986D01*
X117349068Y-64380532D01*
X117349066Y-64380533D01*
X117341203Y-64381526D01*
X117300086Y-64397806D01*
X117288885Y-64401641D01*
X117246406Y-64413982D01*
X117239587Y-64418015D01*
X117239582Y-64418017D01*
X117228971Y-64424293D01*
X117211221Y-64432990D01*
X117192383Y-64440448D01*
X117185969Y-64445108D01*
X117185962Y-64445112D01*
X117156615Y-64466434D01*
X117146708Y-64472943D01*
X117145006Y-64473949D01*
X117080861Y-64491500D01*
X116567063Y-64491500D01*
X116548114Y-64490067D01*
X116547907Y-64490036D01*
X116526651Y-64486802D01*
X116519359Y-64487395D01*
X116519356Y-64487395D01*
X116473991Y-64491085D01*
X116463777Y-64491500D01*
X116455707Y-64491500D01*
X116452087Y-64491922D01*
X116452069Y-64491923D01*
X116427461Y-64494792D01*
X116423100Y-64495224D01*
X116397981Y-64497267D01*
X116357661Y-64500546D01*
X116357658Y-64500547D01*
X116350363Y-64501140D01*
X116343399Y-64503396D01*
X116337440Y-64504587D01*
X116331585Y-64505971D01*
X116324319Y-64506818D01*
X116255673Y-64531735D01*
X116251545Y-64533152D01*
X116189064Y-64553393D01*
X116189062Y-64553394D01*
X116182101Y-64555649D01*
X116175846Y-64559445D01*
X116170372Y-64561951D01*
X116164942Y-64564670D01*
X116158063Y-64567167D01*
X116097016Y-64607191D01*
X116093327Y-64609518D01*
X116073135Y-64621771D01*
X116035693Y-64644491D01*
X116035688Y-64644495D01*
X116030892Y-64647405D01*
X116022516Y-64654803D01*
X116022493Y-64654777D01*
X116019503Y-64657426D01*
X116016265Y-64660134D01*
X116010148Y-64664144D01*
X116005117Y-64669455D01*
X115966088Y-64710654D01*
X115904719Y-64746351D01*
X115874616Y-64750000D01*
X115750000Y-64750000D01*
X115750000Y-64802424D01*
X115729998Y-64870545D01*
X115690307Y-64909565D01*
X115545969Y-64998884D01*
X115540796Y-65004066D01*
X115428242Y-65116816D01*
X115428238Y-65116821D01*
X115423071Y-65121997D01*
X115419231Y-65128227D01*
X115419230Y-65128228D01*
X115381082Y-65190116D01*
X115328310Y-65237609D01*
X115273822Y-65250000D01*
X112876000Y-65250000D01*
X112807879Y-65229998D01*
X112761386Y-65176342D01*
X112750000Y-65124000D01*
X112750000Y-63376000D01*
X112770002Y-63307879D01*
X112823658Y-63261386D01*
X112876000Y-63250000D01*
X117624000Y-63250000D01*
X117692121Y-63270002D01*
G37*
%TD.AperFunction*%
%TD*%
%TA.AperFunction,Conductor*%
%TO.N,/power-SMD/inductor1*%
G36*
X119192121Y-59020002D02*
G01*
X119238614Y-59073658D01*
X119250000Y-59126000D01*
X119250000Y-63236914D01*
X119229998Y-63305035D01*
X119185187Y-63346801D01*
X119178295Y-63349385D01*
X119171116Y-63354765D01*
X119171113Y-63354767D01*
X119085433Y-63418981D01*
X119061739Y-63436739D01*
X118974385Y-63553295D01*
X118923255Y-63689684D01*
X118922402Y-63697540D01*
X118917886Y-63739108D01*
X118890644Y-63804670D01*
X118832281Y-63845096D01*
X118792623Y-63851500D01*
X118376000Y-63851500D01*
X118307879Y-63831498D01*
X118261386Y-63777842D01*
X118250000Y-63725500D01*
X118250000Y-62000000D01*
X116876000Y-62000000D01*
X116807879Y-61979998D01*
X116761386Y-61926342D01*
X116750000Y-61874000D01*
X116750000Y-59126000D01*
X116770002Y-59057879D01*
X116823658Y-59011386D01*
X116876000Y-59000000D01*
X119124000Y-59000000D01*
X119192121Y-59020002D01*
G37*
%TD.AperFunction*%
%TD*%
%TA.AperFunction,Conductor*%
%TO.N,/power-SMD/inductor2*%
G36*
X123442121Y-59020002D02*
G01*
X123488614Y-59073658D01*
X123500000Y-59126000D01*
X123500000Y-61525262D01*
X123479998Y-61593383D01*
X123426342Y-61639876D01*
X123387002Y-61650589D01*
X123385168Y-61650779D01*
X123375693Y-61651762D01*
X123375690Y-61651763D01*
X123368834Y-61652474D01*
X123362298Y-61654655D01*
X123362296Y-61654655D01*
X123230194Y-61698728D01*
X123201054Y-61708450D01*
X123050652Y-61801522D01*
X122925695Y-61926697D01*
X122921855Y-61932927D01*
X122921850Y-61932933D01*
X122917421Y-61940118D01*
X122864648Y-61987611D01*
X122810163Y-62000000D01*
X122250000Y-62000000D01*
X122250000Y-63725500D01*
X122229998Y-63793621D01*
X122176342Y-63840114D01*
X122124000Y-63851500D01*
X121707377Y-63851500D01*
X121639256Y-63831498D01*
X121592763Y-63777842D01*
X121582114Y-63739108D01*
X121577598Y-63697540D01*
X121576745Y-63689684D01*
X121525615Y-63553295D01*
X121438261Y-63436739D01*
X121414567Y-63418981D01*
X121328887Y-63354767D01*
X121328884Y-63354765D01*
X121321705Y-63349385D01*
X121314889Y-63346830D01*
X121265345Y-63297176D01*
X121250000Y-63236914D01*
X121250000Y-59126000D01*
X121270002Y-59057879D01*
X121323658Y-59011386D01*
X121376000Y-59000000D01*
X123374000Y-59000000D01*
X123442121Y-59020002D01*
G37*
%TD.AperFunction*%
%TD*%
%TA.AperFunction,Conductor*%
%TO.N,+5VA*%
G36*
X127942121Y-58770002D02*
G01*
X127988614Y-58823658D01*
X128000000Y-58876000D01*
X128000000Y-61124000D01*
X127979998Y-61192121D01*
X127926342Y-61238614D01*
X127874000Y-61250000D01*
X125250000Y-61250000D01*
X125250000Y-63374000D01*
X125229998Y-63442121D01*
X125176342Y-63488614D01*
X125124000Y-63500000D01*
X124126000Y-63500000D01*
X124057879Y-63479998D01*
X124011386Y-63426342D01*
X124000000Y-63374000D01*
X124000000Y-58876000D01*
X124020002Y-58807879D01*
X124073658Y-58761386D01*
X124126000Y-58750000D01*
X127874000Y-58750000D01*
X127942121Y-58770002D01*
G37*
%TD.AperFunction*%
%TD*%
M02*
