M48
; DRILL file {KiCad 6.0.4-6f826c9f35~116~ubuntu20.04.1} date Mi 07 Dez 2022 13:40:01 CET
; FORMAT={-:-/ absolute / inch / decimal}
; #@! TF.CreationDate,2022-12-07T13:40:01+01:00
; #@! TF.GenerationSoftware,Kicad,Pcbnew,6.0.4-6f826c9f35~116~ubuntu20.04.1
; #@! TF.FileFunction,Plated,1,4,PTH
FMAT,2
INCH
; #@! TA.AperFunction,Plated,PTH,ComponentDrill
T1C0.0118
; #@! TA.AperFunction,Plated,PTH,ViaDrill
T2C0.0157
; #@! TA.AperFunction,Plated,PTH,ComponentDrill
T3C0.0236
; #@! TA.AperFunction,Plated,PTH,ComponentDrill
T4C0.0300
; #@! TA.AperFunction,Plated,PTH,ComponentDrill
T5C0.0315
; #@! TA.AperFunction,Plated,PTH,ComponentDrill
T6C0.0354
; #@! TA.AperFunction,Plated,PTH,ComponentDrill
T7C0.0394
; #@! TA.AperFunction,Plated,PTH,ComponentDrill
T8C0.0400
; #@! TA.AperFunction,Plated,PTH,ComponentDrill
T9C0.0402
; #@! TA.AperFunction,Plated,PTH,ComponentDrill
T10C0.0520
; #@! TA.AperFunction,Plated,PTH,ComponentDrill
T11C0.0728
; #@! TA.AperFunction,Plated,PTH,ComponentDrill
T12C0.1575
; #@! TA.AperFunction,Plated,PTH,ComponentDrill
T13C0.1693
%
G90
G05
T1
X4.7154Y-2.5252
X4.7154Y-2.5929
X4.7343Y-2.5591
X4.7531Y-2.5252
X4.7531Y-2.5929
T2
X4.252Y-3.9075
X4.2531Y-4.1591
X4.2717Y-3.7008
X4.2717Y-3.7795
X4.2815Y-2.4803
X4.2815Y-3.1988
X4.3012Y-2.7953
X4.3406Y-4.1437
X4.3504Y-2.5492
X4.3515Y-4.3264
X4.3515Y-4.543
X4.3613Y-3.5095
X4.381Y-3.1257
X4.3909Y-3.8934
X4.3996Y-4.1535
X4.4193Y-2.6575
X4.439Y-2.9429
X4.4685Y-4.0453
X4.4882Y-2.7165
X4.4907Y-4.5543
X4.4957Y-4.3201
X4.498Y-3.4744
X4.498Y-3.6516
X4.5079Y-3.9862
X4.5385Y-3.293
X4.539Y-3.4303
X4.5571Y-3.8484
X4.5768Y-2.5098
X4.5768Y-2.7165
X4.5976Y-4.3166
X4.5998Y-4.5452
X4.6063Y-4.0059
X4.6267Y-2.6006
X4.6369Y-3.4505
X4.6555Y-3.8521
X4.6654Y-4.0266
X4.6699Y-4.5617
X4.6756Y-3.8182
X4.694Y-4.3184
X4.7157Y-3.9721
X4.7244Y-2.6575
X4.7255Y-4.5617
X4.7363Y-3.6811
X4.7452Y-3.4603
X4.755Y-4.1788
X4.7747Y-4.6906
X4.7835Y-5.4232
X4.7861Y-4.2029
X4.7884Y-4.872
X4.7884Y-4.9213
X4.7982Y-4.7638
X4.7982Y-4.8228
X4.8043Y-4.1394
X4.813Y-4.0945
X4.8338Y-3.4505
X4.8425Y-2.5787
X4.8436Y-4.2969
X4.8436Y-4.415
X4.8436Y-4.4554
X4.8436Y-4.6217
X4.8819Y-3.8091
X4.9027Y-4.4839
X4.9027Y-4.3855
X4.9027Y-4.4347
X4.9027Y-4.543
X4.9617Y-3.9327
X4.9617Y-4.356
X4.9617Y-4.4249
X4.9617Y-4.4839
X4.9617Y-4.5145
X4.9705Y-3.7303
X4.9733Y-3.8951
X4.9787Y-3.8075
X4.9803Y-2.874
X5.0Y-2.5984
X5.0098Y-2.3228
X5.0208Y-3.9731
X5.0208Y-4.3264
X5.0208Y-4.4544
X5.0208Y-4.5725
X5.0405Y-5.0253
X5.0492Y-3.6713
X5.0591Y-2.5
X5.0591Y-3.2185
X5.0689Y-3.3661
X5.0787Y-2.126
X5.0891Y-3.8676
X5.0897Y-4.7201
X5.0984Y-3.9173
X5.0984Y-4.1732
X5.1181Y-3.4055
X5.1389Y-4.5331
X5.1684Y-4.3363
X5.1821Y-4.7638
X5.2249Y-4.5456
X5.2313Y-4.9213
X5.2362Y-4.3386
X5.2707Y-4.872
X5.2865Y-5.1138
X5.2964Y-4.9564
X5.3142Y-4.3344
X5.3297Y-4.8228
X5.3642Y-2.0669
X5.3653Y-4.543
X5.368Y-3.4585
X5.374Y-3.5531
X5.374Y-3.6516
X5.3921Y-4.1634
X5.4035Y-4.0354
X5.4134Y-4.3352
X5.4478Y-4.9213
X5.4478Y-4.7638
X5.4523Y-4.1245
X5.4637Y-4.543
X5.4715Y-3.5039
X5.5113Y-4.1836
X5.5709Y-4.1634
X5.5906Y-5.1575
X5.6201Y-3.9862
X5.6398Y-4.252
X5.6594Y-5.1575
X5.7087Y-4.7933
X5.7087Y-4.8524
X5.7787Y-4.7201
X5.8858Y-2.874
X5.9843Y-5.5906
X5.9941Y-3.1693
X6.0433Y-2.4705
X6.1516Y-2.304
X6.1614Y-1.9882
X6.2008Y-5.6102
X6.4272Y-3.6319
X6.4567Y-3.4154
X6.4862Y-3.6319
X6.5748Y-5.3248
X7.0571Y-3.6614
X7.1161Y-2.2146
X7.126Y-3.6516
X8.3307Y-2.0217
X8.4823Y-2.0236
X8.7736Y-2.2382
X8.9803Y-2.1594
X9.1181Y-2.4843
T3
X2.9144Y-1.8406
X2.9321Y-5.5748
X2.9516Y-1.7508
X2.9516Y-1.9303
X2.9693Y-5.485
X2.9693Y-5.6646
X3.0413Y-1.7136
X3.0413Y-1.9675
X3.0591Y-5.4478
X3.0591Y-5.7018
X3.1311Y-1.7508
X3.1311Y-1.9303
X3.1488Y-5.485
X3.1488Y-5.6646
X3.1683Y-1.8406
X3.186Y-5.5748
X4.125Y-5.6201
X4.1622Y-5.5303
X4.1622Y-5.7099
X4.252Y-5.4931
X4.252Y-5.747
X4.3417Y-5.5303
X4.3417Y-5.7099
X4.3789Y-5.6201
X6.123Y-5.0492
X6.1602Y-4.9594
X6.1602Y-5.139
X6.25Y-4.9222
X6.25Y-5.1762
X6.3398Y-4.9594
X6.3398Y-5.139
X6.377Y-5.0492
X6.5411Y-5.0511
X6.5757Y-4.9676
X6.5757Y-5.1346
X6.6592Y-4.933
X6.6592Y-5.1692
X6.7428Y-4.9676
X6.7428Y-5.1346
X6.7774Y-5.0511
X7.1171Y-3.3366
X7.1289Y-5.5906
X7.1319Y-1.8465
X7.1543Y-3.2468
X7.1543Y-3.4264
X7.1661Y-5.5008
X7.1661Y-5.6803
X7.1691Y-1.7567
X7.1691Y-1.9362
X7.2441Y-3.2096
X7.2441Y-3.4636
X7.2559Y-5.4636
X7.2559Y-5.7175
X7.2589Y-1.7195
X7.2589Y-1.9734
X7.3339Y-3.2468
X7.3339Y-3.4264
X7.3457Y-5.5008
X7.3457Y-5.6803
X7.3486Y-1.7567
X7.3486Y-1.9362
X7.3711Y-3.3366
X7.3829Y-5.5906
X7.3858Y-1.8465
X7.623Y-1.7756
X7.623Y-2.8386
X7.6602Y-1.6858
X7.6602Y-1.8654
X7.6602Y-2.7488
X7.6602Y-2.9284
X7.75Y-1.6486
X7.75Y-1.9026
X7.75Y-2.7116
X7.75Y-2.9656
X7.8398Y-1.6858
X7.8398Y-1.8654
X7.8398Y-2.7488
X7.8398Y-2.9284
X7.877Y-1.7756
X7.877Y-2.8386
X9.3917Y-2.8344
X9.3993Y-1.7759
X9.4289Y-2.7446
X9.4289Y-2.9241
X9.4365Y-1.6862
X9.4365Y-1.8657
X9.5187Y-2.7074
X9.5187Y-2.9613
X9.5263Y-1.649
X9.5263Y-1.9029
X9.6085Y-2.7446
X9.6085Y-2.9241
X9.6161Y-1.6862
X9.6161Y-1.8657
X9.6457Y-2.8344
X9.6533Y-1.7759
T4
X5.2679Y-1.9183
X5.2679Y-2.0183
X5.2679Y-2.1183
X5.2679Y-2.2183
X5.2679Y-2.3183
X5.2679Y-2.4183
X5.2679Y-2.5183
X5.2679Y-2.6183
X5.2679Y-2.7183
X5.2679Y-2.8183
X5.2679Y-2.9183
X5.2679Y-3.0183
X5.2679Y-3.1183
X5.2679Y-3.2183
X5.2679Y-3.3183
X6.2479Y-1.9183
X6.2479Y-2.0183
X6.2479Y-2.0183
X6.2479Y-2.1183
X6.2479Y-2.2183
X6.2479Y-2.3183
X6.2479Y-2.4183
X6.2479Y-2.5183
X6.2479Y-2.6183
X6.2479Y-2.7183
X6.2479Y-2.8183
X6.2479Y-2.9183
X6.2479Y-3.0183
X6.2479Y-3.1183
X6.2479Y-3.2183
X6.2479Y-3.3183
T5
X7.9595Y-2.1371
X7.9595Y-2.2371
X7.9595Y-2.3371
X7.9595Y-2.4371
X7.9595Y-2.5371
X8.1595Y-2.1371
X8.1595Y-2.2371
X8.1595Y-2.3371
X8.1595Y-2.4371
X8.1595Y-2.5371
X8.3261Y-2.1371
X8.3261Y-2.2371
X8.3261Y-2.3371
X8.3261Y-2.4371
X8.3261Y-2.5371
X8.5261Y-2.1371
X8.5261Y-2.2371
X8.5261Y-2.3371
X8.5261Y-2.4371
X8.5261Y-2.5371
X8.6926Y-2.1371
X8.6926Y-2.2371
X8.6926Y-2.3371
X8.6926Y-2.4371
X8.6926Y-2.5371
X8.8926Y-2.1371
X8.8926Y-2.2371
X8.8926Y-2.3371
X8.8926Y-2.4371
X8.8926Y-2.5371
X9.0592Y-2.1371
X9.0592Y-2.2371
X9.0592Y-2.3371
X9.0592Y-2.4371
X9.0592Y-2.5371
X9.2592Y-2.1371
X9.2592Y-2.2371
X9.2592Y-2.3371
X9.2592Y-2.4371
X9.2592Y-2.5371
T6
X3.8091Y-1.752
X3.8091Y-1.9488
X4.0453Y-1.752
X4.0453Y-1.9488
T7
X3.4744Y-1.7608
X3.5728Y-1.7608
X4.26Y-2.9111
X4.26Y-3.0111
X4.26Y-3.1111
X4.6949Y-1.9488
X4.7098Y-1.7224
X4.7949Y-1.9488
X4.8098Y-1.7224
X4.8949Y-1.9488
X4.9098Y-1.7224
X4.9803Y-5.6299
X4.9803Y-5.7299
X4.9949Y-1.9488
X5.0098Y-1.7224
X5.0803Y-5.6299
X5.0803Y-5.7299
X5.0949Y-1.9488
X5.1098Y-1.7224
X5.1803Y-5.6299
X5.1803Y-5.7299
X5.2803Y-5.6299
X5.2803Y-5.7299
X5.3803Y-5.6299
X5.3803Y-5.7299
X5.4803Y-5.6299
X5.4803Y-5.7299
X5.5803Y-5.6299
X5.5803Y-5.7299
X6.4065Y-3.3465
X6.5065Y-3.3465
X6.6065Y-3.3465
X7.2539Y-2.2411
X7.2539Y-2.3411
X7.2539Y-2.4411
X7.2539Y-2.5411
X7.2539Y-2.6411
X8.2717Y-1.7657
X8.2717Y-1.8657
X8.3717Y-1.7657
X8.3717Y-1.8657
X8.4717Y-1.7657
X8.4717Y-1.8657
X8.5717Y-1.7657
X8.5717Y-1.8657
X8.6717Y-1.7657
X8.6717Y-1.8657
X8.7717Y-1.7657
X8.7717Y-1.8657
X8.8717Y-1.7657
X8.8717Y-1.8657
T8
X5.7185Y-4.0079
X5.7185Y-4.1079
X5.7185Y-4.2079
X5.7185Y-4.3079
X5.7185Y-4.4079
X6.0185Y-4.0079
X6.0185Y-4.1079
X6.8185Y-4.0079
X6.8185Y-4.1079
X6.8185Y-4.2079
X6.8185Y-4.3079
X6.8185Y-4.4079
T9
X6.9882Y-3.9665
X6.9882Y-4.0846
X6.9882Y-4.2028
X6.9882Y-4.3209
X6.9882Y-4.439
T10
X6.5748Y-5.502
X6.5748Y-5.6988
T11
X6.6339Y-1.9587
X6.6394Y-3.0667
X6.6407Y-2.188
X6.6437Y-2.8445
X6.6471Y-2.4067
X6.6471Y-2.6229
X6.8701Y-1.9488
X6.8707Y-2.1696
X6.8733Y-2.4029
X6.8786Y-2.631
X6.8839Y-2.8432
X6.8892Y-3.066
T12
X6.6592Y-5.0511
T13
X3.0413Y-1.8406
X3.0591Y-5.5748
X4.252Y-5.6201
X6.25Y-5.0492
X7.2441Y-3.3366
X7.2559Y-5.5906
X7.2589Y-1.8465
X7.75Y-1.7756
X7.75Y-2.8386
X9.5187Y-2.8344
X9.5263Y-1.7759
T0
M30
